<?xml version="1.0" encoding="UTF-8" standalone="no"?>
<!-- Created with Inkscape (http://www.inkscape.org/) -->
<svg xmlns:dc="http://purl.org/dc/elements/1.1/" xmlns:cc="http://creativecommons.org/ns#" xmlns:rdf="http://www.w3.org/1999/02/22-rdf-syntax-ns#" xmlns:svg="http://www.w3.org/2000/svg" xmlns="http://www.w3.org/2000/svg" xmlns:xlink="http://www.w3.org/1999/xlink" xmlns:sodipodi="http://sodipodi.sourceforge.net/DTD/sodipodi-0.dtd" xmlns:inkscape="http://www.inkscape.org/namespaces/inkscape" version="1.0" width="170" height="243.96999" id="svg2" sodipodi:version="0.32" inkscape:version="0.46dev+devel" sodipodi:docname="ryanlerch_girlface4_ok.svg" inkscape:output_extension="org.inkscape.output.svg.inkscape" inkscape:export-filename="C:\joanna\Gfx\drawings_vector\admin\thumbs\ryanlerch_girlface4.png" inkscape:export-xdpi="73.588234" inkscape:export-ydpi="73.588234">
  <sodipodi:namedview inkscape:window-height="643" inkscape:window-width="640" inkscape:pageshadow="2" inkscape:pageopacity="0.0" guidetolerance="10.0" gridtolerance="10.0" objecttolerance="10.0" borderopacity="1.0" bordercolor="#666666" pagecolor="#ffffff" id="base" showgrid="false" width="180px" inkscape:zoom="1.7319936" inkscape:cx="157.04446" inkscape:cy="121.98499" inkscape:window-x="44" inkscape:window-y="58" inkscape:current-layer="svg2"/>
  <defs id="defs4">
    <linearGradient id="linearGradient4007">
      <stop style="stop-color:#d69a99;stop-opacity:1" offset="0" id="stop4009"/>
      <stop style="stop-color:#d69a99;stop-opacity:0" offset="1" id="stop4011"/>
    </linearGradient>
    <radialGradient cx="220" cy="232.54141" r="91.428574" fx="220" fy="232.54141" id="radialGradient4592" xlink:href="#linearGradient4007" gradientUnits="userSpaceOnUse" gradientTransform="translate(-351.6589,46.77696)"/>
    <radialGradient cx="220" cy="232.54141" r="91.428574" fx="220" fy="232.54141" id="radialGradient4594" xlink:href="#linearGradient4007" gradientUnits="userSpaceOnUse" gradientTransform="translate(-635.9446,36.77696)"/>
    <radialGradient cx="220" cy="232.54141" r="91.428574" fx="220" fy="232.54141" id="radialGradient4600" xlink:href="#linearGradient4007" gradientUnits="userSpaceOnUse" gradientTransform="translate(-351.6589,46.77696)"/>
    <radialGradient cx="220" cy="232.54141" r="91.428574" fx="220" fy="232.54141" id="radialGradient4608" xlink:href="#linearGradient4007" gradientUnits="userSpaceOnUse" gradientTransform="translate(-635.9446,36.77696)"/>
    <radialGradient cx="220" cy="232.54141" r="91.428574" fx="220" fy="232.54141" id="radialGradient4658" xlink:href="#linearGradient4007" gradientUnits="userSpaceOnUse" gradientTransform="translate(-351.6589,46.77696)"/>
    <radialGradient cx="220" cy="232.54141" r="91.428574" fx="220" fy="232.54141" id="radialGradient4666" xlink:href="#linearGradient4007" gradientUnits="userSpaceOnUse" gradientTransform="translate(-635.9446,36.77696)"/>
  </defs>
  <g transform="translate(-15.48396,-19.6341)" id="layer1">
    <g transform="matrix(0.258484,0,0,0.258484,171.4003,120.9803)" id="g4536">
      <path d="M -298.65891,505.89127 C -313.55977,504.10596 -328.50716,501.81423 -342.66411,496.64151 C -375.68571,485.72918 -405.42153,465.99535 -429.54743,441.07423 C -459.74407,410.71916 -480.61484,371.97559 -492.87749,331.1613 C -498.44088,310.92348 -502.47808,290.187 -503.92987,269.22571 C -510.05869,276.34007 -522.14498,277.35141 -528.82258,270.42731 C -535.24259,264.074 -534.67674,252.72865 -528.68195,246.28763 C -533.83414,236.69169 -532.90342,225.42007 -532.11856,214.94866 C -529.11853,205.86424 -524.58403,195.67522 -514.94317,192.11544 C -510.03783,188.24023 -498.15057,192.12956 -498.1273,183.64277 C -499.99588,178.10393 -505.73795,175.20299 -508.90131,170.44385 C -512.93657,165.6793 -515.0029,159.73615 -516.97937,153.93851 C -519.69746,148.3471 -524.69925,142.97458 -523.48675,136.28903 C -522.95961,128.51359 -532.95413,129.22178 -537.50659,132.22337 C -540.17298,134.32455 -548.95164,138.43313 -548.63542,133.31123 C -544.71581,130.10871 -539.3923,129.37012 -534.6825,127.84291 C -528.62143,127.13691 -524.6892,123.01992 -525.75407,116.80559 C -524.17401,98.179109 -523.29166,78.13244 -512.17645,62.279506 C -507.22571,55.252447 -502.2238,48.161763 -496.3427,41.889312 C -488.93721,34.897381 -479.73706,30.286778 -471.71566,24.097079 C -464.09348,21.477809 -455.02236,17.605895 -452.9614,8.9332134 C -453.0549,1.432713 -445.52248,-3.4930831 -445.10918,-10.706164 C -448.09377,-17.044112 -456.99905,-17.053843 -463.03678,-18.684059 C -467.90237,-20.67325 -475.86055,-15.314751 -478.60921,-20.293937 C -473.41509,-22.46356 -466.80933,-21.544831 -461.0678,-21.576442 C -454.7476,-21.43459 -449.00169,-18.674391 -443.56266,-15.842732 C -437.26769,-15.170954 -434.19025,-21.837749 -430.75402,-25.912008 C -425.02316,-32.081621 -417.73047,-36.547789 -410.70898,-41.082009 C -403.71006,-45.134364 -395.84426,-48.112692 -387.66989,-48.187228 C -382.98712,-50.90979 -372.02676,-44.088388 -372.08638,-51.852832 C -374.40658,-58.599727 -377.50183,-65.050543 -379.53439,-71.930076 C -384.40879,-82.790137 -390.51174,-93.081135 -394.75041,-104.22774 C -396.77551,-109.17013 -399.03213,-115.27024 -404.7465,-116.80778 C -409.59752,-117.99125 -416.14184,-126.32015 -419.35791,-119.17281 C -423.23196,-114.02096 -426.07411,-107.72084 -425.73795,-101.15553 C -431.46693,-100.51732 -428.01968,-110.05843 -427.42549,-113.51206 C -426.31614,-119.42197 -417.4724,-123.06202 -419.90288,-129.38263 C -424.41651,-134.17395 -428.73647,-126.88729 -429.16429,-122.63367 C -429.00723,-119.23677 -432.11606,-115.89018 -432.73951,-121.09053 C -433.18809,-126.79046 -429.23195,-131.39703 -425.72407,-135.35183 C -424.212,-141.11545 -432.03602,-145.23608 -430.16142,-151.74528 C -430.86092,-170.85046 -431.93977,-191.05835 -423.35689,-208.75499 C -418.83089,-216.09934 -411.59917,-221.48248 -404.32444,-225.95313 C -399.24279,-228.65409 -390.73642,-229.28168 -392.15639,-237.44106 C -391.65262,-244.04019 -396.07142,-248.75376 -402.17845,-250.74734 C -406.87244,-251.12937 -405.4792,-260.86514 -401.49318,-255.37661 C -398.31649,-250.55761 -389.11837,-250.60811 -391.5845,-258.01138 C -389.72399,-268.99534 -382.05365,-277.76985 -374.79189,-285.71883 C -370.011,-289.58106 -362.54535,-291.0024 -360.46644,-297.51293 C -360.09137,-309.03152 -357.57203,-321.09787 -349.87684,-330.05809 C -345.34043,-337.29767 -338.66197,-343.9347 -330.03271,-345.73831 C -318.73148,-351.34022 -305.81625,-349.07143 -293.71092,-350.27981 C -292.81198,-355.27173 -301.9342,-359.07873 -299.16801,-362.94206 C -292.75414,-362.42045 -292.01349,-353.81752 -286.98483,-350.82062 C -283.17402,-346.67345 -273.80527,-350.13711 -279.81015,-355.53434 C -282.22593,-359.04217 -290.54532,-363.99962 -286.70607,-368.29101 C -279.35392,-364.62658 -277.99498,-354.2258 -270.00259,-351.30337 C -262.83095,-350.58806 -255.57319,-352.98261 -248.29498,-352.46559 C -237.78677,-352.58897 -227.6338,-349.62618 -217.36247,-347.82966 C -206.84427,-345.57886 -195.36677,-341.1148 -190.40323,-330.84037 C -186.40564,-323.75859 -185.01214,-315.60546 -184.22261,-307.64578 C -181.29608,-298.78116 -173.14142,-292.73979 -170.69003,-283.63805 C -166.37773,-272.72029 -162.50889,-260.919 -164.30453,-249.04188 C -164.34373,-245.57597 -165.84177,-239.89204 -164.22159,-237.79202 C -158.17075,-240.13021 -155.05968,-247.42532 -148.21395,-248.11719 C -143.22194,-245.90416 -152.28365,-241.97038 -154.48304,-240.44975 C -159.93899,-238.45222 -162.4352,-231.26953 -156.42209,-228.58682 C -153.2542,-222.84052 -147.7284,-227.66226 -145.15011,-231.09972 C -140.65111,-234.91861 -135.52644,-238.23688 -129.7289,-239.63721 C -130.64433,-232.81229 -139.24042,-232.48354 -143.23291,-228.03599 C -148.47553,-225.19224 -148.19352,-219.45026 -143.95261,-216.06432 C -138.24666,-206.13963 -134.68335,-193.93326 -138.37267,-182.6753 C -144.52961,-172.14126 -153.27937,-163.50276 -161.73634,-154.83311 C -162.4094,-148.38531 -153.80935,-146.65475 -152.90803,-140.67253 C -151.02796,-138.57294 -151.14676,-130.3531 -154.5616,-133.73129 C -156.98061,-139.77604 -160.07787,-146.07806 -165.43602,-149.99739 C -168.77476,-147.14582 -168.42468,-141.12497 -170.7077,-137.12644 C -172.86343,-131.29956 -175.6103,-125.69347 -178.86714,-120.40343 C -180.62274,-111.84996 -175.10425,-102.96108 -179.21192,-94.682728 C -184.82115,-77.360907 -191.51797,-60.390108 -196.38526,-42.830774 C -189.66243,-38.610785 -181.02772,-41.153261 -174.15891,-37.330976 C -168.67494,-35.906636 -160.92487,-30.926388 -156.49998,-36.870998 C -155.72893,-39.873804 -148.8024,-45.609127 -149.92302,-39.239464 C -153.73851,-35.841934 -158.77334,-30.821232 -151.31264,-28.403578 C -146.23076,-23.506616 -144.37805,-31.516011 -140.56724,-33.731901 C -136.62287,-36.778163 -132.43751,-39.568534 -128.24309,-42.221291 C -121.75826,-42.334591 -129.71495,-35.942141 -132.01243,-34.737495 C -136.85956,-32.088804 -147.9295,-24.79676 -138.44146,-20.561277 C -132.78744,-18.269039 -128.38152,-14.023564 -123.57384,-10.389616 C -114.1703,-2.5923656 -105.98993,6.7346796 -99.793471,17.27819 C -98.554287,26.219199 -93.137367,34.738246 -84.810425,38.56652 C -72.687663,47.798002 -63.81129,60.694974 -57.803585,74.565359 C -53.063161,82.314719 -52.192519,91.576214 -49.823695,100.16837 C -47.860671,112.44443 -50.352717,124.78114 -51.422577,137.01193 C -41.750088,144.89025 -29.951242,152.29762 -26.467082,165.0898 C -23.786225,175.72033 -28.204378,186.95541 -35.397204,194.78584 C -39.244918,200.39581 -33.281309,203.66459 -29.384211,206.08141 C -23.959659,212.92292 -26.207578,222.23335 -26.229813,230.24846 C -26.669734,239.33907 -27.539335,248.93572 -32.658903,256.75108 C -34.663102,264.91345 -39.927477,274.20689 -49.182297,275.06877 C -56.227716,272.18371 -59.111384,281.18581 -58.115061,286.56922 C -59.405598,293.37333 -61.012564,300.11595 -62.02095,306.9813 C -67.058301,335.36552 -77.574234,362.59037 -91.448183,387.78986 C -103.42579,409.15422 -118.04257,429.17592 -135.93658,445.98327 C -157.4985,466.98174 -183.26814,483.86956 -211.48432,494.46024 C -221.98593,498.21466 -232.75223,501.32065 -243.68959,503.49988 C -259.86713,506.22353 -276.34013,505.72431 -292.6803,506.0728 C -294.67406,506.05039 -296.66764,505.99436 -298.65891,505.89127 z M -250.82614,499.67062 C -219.80007,494.81537 -189.77485,482.90646 -164.50462,464.15164 C -139.00189,445.80056 -117.75239,421.84923 -101.13744,395.27104 C -87.855761,373.65766 -77.922555,350.10482 -71.113142,325.68878 C -67.335865,313.32142 -64.822981,300.60787 -63.407459,287.76189 C -62.598529,282.47243 -61.548844,277.1417 -61.929241,271.76516 C -68.917621,265.42583 -69.89358,253.11626 -62.550668,246.63933 C -55.550089,240.10998 -42.776003,241.11289 -37.349244,249.17746 C -30.026181,249.67881 -32.486872,239.61367 -31.147144,234.9263 C -30.281549,227.04646 -28.373585,218.45661 -32.020978,211.00464 C -35.245331,203.95095 -43.726696,202.671 -50.172011,205.77856 C -56.823144,208.36495 -63.642745,205.73593 -70.443122,205.71639 C -81.357958,204.89694 -93.227005,204.40701 -102.23078,197.3882 C -115.72442,188.30875 -125.90531,175.25081 -134.42589,161.59174 C -135.37778,166.91717 -133.88943,173.43821 -134.22376,179.20469 C -134.54658,181.89369 -133.64633,189.96234 -135.63502,189.06065 C -139.72741,182.60918 -136.70532,174.71597 -137.50197,167.60398 C -137.26198,159.76367 -139.23369,151.92379 -143.58728,145.34973 C -148.0405,139.59503 -146.75913,131.70845 -150.75248,125.78993 C -155.78322,120.27401 -164.44851,120.88052 -170.57853,116.82222 C -183.86673,110.32583 -196.77383,101.44932 -204.30583,88.381757 C -206.16894,82.8631 -206.44947,73.663734 -214.43712,74.059435 C -224.49018,71.564276 -235.55576,68.039815 -241.37882,58.762329 C -249.152,49.094685 -252.93953,37.068073 -259.63362,26.728556 C -263.15421,20.654338 -266.46781,14.397233 -268.60511,7.6854372 C -272.54569,4.1754356 -271.39995,13.840018 -272.67733,16.052631 C -274.65959,27.035274 -277.37885,38.490586 -284.93915,47.096356 C -291.01684,55.630115 -298.81636,62.747722 -306.89289,69.346345 C -303.41233,70.13192 -300.98532,79.534414 -306.40114,75.471583 C -310.86429,69.464925 -318.19656,74.651513 -322.17295,76.474217 C -329.77837,75.122499 -336.01764,81.704089 -343.59844,81.091548 C -349.70312,81.364721 -355.74718,82.372039 -361.84967,82.675514 C -373.21322,100.90228 -384.51269,119.64997 -400.73715,134.05248 C -410.18849,143.32068 -419.78083,152.85009 -431.43652,159.31513 C -441.49623,163.96043 -453.49465,167.13 -459.58447,177.25493 C -466.2579,185.6236 -478.20241,189.28935 -488.36536,185.78713 C -493.10379,184.62725 -495.73845,189.66237 -496.46119,192.722 C -504.45504,195.36217 -514.74366,193.78231 -520.45622,201.20523 C -527.64963,211.0745 -529.1581,223.89032 -527.516,235.69875 C -528.43301,242.71107 -521.6082,244.26352 -516.45259,242.19227 C -508.44413,242.33636 -501.52682,249.08004 -500.68008,256.97686 C -496.97233,281.32032 -496.32231,306.36815 -488.26183,329.86279 C -476.35322,370.07145 -455.67459,407.99915 -426.25723,438.08601 C -399.47316,465.9574 -365.13333,486.9093 -327.44767,496.06489 C -302.49426,502.4817 -276.26295,504.09632 -250.82614,499.67062 z M -300.65891,493.67551 C -296.51343,487.35286 -297.752,499.68241 -300.65891,493.67551 z M -324.15891,492.62619 C -328.05094,491.00387 -335.71215,490.66356 -336.45319,486.49823 C -331.23047,484.76767 -325.97765,489.11288 -320.60739,489.32112 C -314.75323,489.51517 -309.62412,495.77393 -318.42566,493.86771 C -320.35848,493.55874 -322.24278,493.01664 -324.15891,492.62619 z M -308.65891,492.67551 C -304.51343,486.35286 -305.752,498.68241 -308.65891,492.67551 z M -344.65891,483.67551 C -340.51343,477.35286 -341.752,489.68241 -344.65891,483.67551 z M -352.65891,481.17551 C -349.17485,473.88401 -350.02267,487.80024 -352.65891,481.17551 z M -316.15891,439.17551 C -334.041,437.70306 -350.7445,430.19454 -366.32334,421.7381 C -382.55386,413.14714 -396.14633,400.0828 -406.69003,385.14795 C -412.29099,377.21327 -415.76934,368.05269 -420.13488,359.42463 C -424.46697,349.23344 -428.24441,338.80235 -431.90126,328.34922 C -436.14049,314.70954 -438.25755,300.39692 -438.54878,286.12269 C -438.5953,280.45182 -438.24578,274.77416 -437.42531,269.16144 C -432.77876,273.83105 -435.41528,280.89893 -434.66063,286.70449 C -434.51589,296.73984 -433.05261,306.70262 -430.68942,316.43313 C -428.40046,329.39379 -421.91144,341.04207 -418.03546,353.50764 C -414.76039,360.96898 -410.64963,368.04472 -407.56968,375.5892 C -394.61416,400.22227 -370.54786,416.9176 -345.19593,427.01126 C -335.36874,430.92411 -325.23101,434.88752 -314.5113,435.00845 C -301.58781,435.89097 -288.62066,436.11611 -275.67348,435.72264 C -265.92539,433.35194 -256.14175,431.03457 -246.52372,428.23015 C -229.21572,424.78313 -214.17873,415.00517 -198.8121,406.86571 C -182.79719,396.49531 -170.04993,381.969 -157.98727,367.39081 C -147.53857,353.53664 -137.31558,339.24075 -130.76467,323.06177 C -125.41648,312.77568 -119.0873,302.85467 -115.87852,291.61419 C -111.64644,281.00211 -105.87778,270.45579 -105.93233,258.72623 C -110.70506,253.45471 -118.80397,257.25802 -124.20364,253.28018 C -120.43324,249.40541 -113.50179,251.611 -108.74429,252.59129 C -102.68013,255.03725 -95.394295,258.99684 -93.134782,265.15662 C -93.557745,271.54824 -98.008341,266.15798 -100.40485,264.51556 C -105.35754,268.20309 -103.38427,276.38606 -106.81974,281.45094 C -111.42624,290.54203 -114.0776,300.44722 -118.42638,309.63898 C -126.86795,323.39726 -132.19912,338.93358 -142.01784,351.87126 C -157.98515,375.16028 -176.16052,398.05688 -200.71443,412.75893 C -212.42068,419.65539 -224.75019,425.57907 -237.51389,430.22498 C -246.11366,432.63636 -254.7869,434.82421 -263.37543,437.23935 C -272.98961,439.52112 -282.8694,440.904 -292.75654,440.12762 C -300.56194,440.16993 -308.4239,440.43883 -316.15891,439.17551 z M -455.90906,287.59201 C -456.28215,278.90113 -450.95858,270.93815 -443.92871,266.25399 C -439.37659,262.77862 -432.19333,257.14013 -426.60073,260.6422 C -427.60377,265.08967 -435.31398,264.07765 -438.51542,267.76804 C -443.5606,271.45602 -449.26428,275.76442 -450.50256,282.27509 C -451.13772,284.83089 -452.60032,288.34674 -455.90906,287.59201 z M -42.227692,231.42551 C -38.674996,225.01818 -43.644491,215.29443 -51.232795,215.38272 C -55.773988,218.39157 -57.206663,210.86707 -51.969164,211.45366 C -45.820064,209.22707 -40.706334,215.67929 -38.479529,220.61952 C -36.238488,224.69503 -37.065207,233.64927 -42.388189,233.59141 L -42.448886,232.58126 L -42.227692,231.42551 L -42.227692,231.42551 z M -516.62372,231.24126 C -519.64872,222.01345 -516.23793,209.62079 -506.42173,206.12904 C -503.48851,204.9249 -494.93634,207.88615 -500.07666,211.14348 C -505.59122,206.83137 -511.53701,213.73876 -513.30023,218.71759 C -516.4384,223.75681 -513.03572,228.61165 -510.25914,232.32067 C -511.74225,234.00416 -515.52196,233.03681 -516.62372,231.24126 z M -83.658905,211.67551 C -79.513461,205.35287 -80.751948,217.68241 -83.658905,211.67551 z M -103.60607,205.04466 C -108.6766,202.12139 -117.805,199.04219 -117.12611,192.16563 C -111.5315,193.74424 -107.17465,199.11713 -101.59113,201.4297 C -99.636754,203.11594 -91.059918,205.93685 -94.525563,208.16926 C -97.844528,208.42011 -100.56537,205.94903 -103.60607,205.04466 z M -125.65891,186.67551 C -121.51347,180.35287 -122.75195,192.68241 -125.65891,186.67551 z M -452.65891,178.67551 C -448.51343,172.35286 -449.752,184.68241 -452.65891,178.67551 z M -256.20435,174.72096 C -262.28346,169.87153 -255.56639,158.74801 -248.43774,161.42171 C -242.04667,163.08715 -240.68909,172.52535 -246.48439,175.82844 C -249.43067,177.88362 -253.88035,177.59715 -256.20435,174.72096 z M -448.48224,173.59731 C -442.24675,170.25871 -436.29769,164.94433 -428.78032,165.35713 C -429.13824,170.04611 -435.93048,171.52439 -439.84845,173.04607 C -442.36274,173.68072 -446.62968,175.84211 -448.48224,173.59731 z M -421.65891,163.67551 C -417.51343,157.35286 -418.752,169.68241 -421.65891,163.67551 z M -301.20435,161.72096 C -307.28346,156.87153 -300.56639,145.74801 -293.43774,148.42171 C -287.04667,150.08715 -285.68907,159.52536 -291.48439,162.82844 C -294.43067,164.88362 -298.88035,164.59715 -301.20435,161.72096 z M -217.65891,160.48727 C -227.5461,152.18902 -238.03136,144.3638 -249.88035,139.0835 C -254.89009,132.77391 -242.7039,134.68061 -239.9878,137.3157 C -231.06411,142.98574 -222.44766,149.21052 -214.27801,155.93594 C -209.62648,158.47848 -213.82376,162.61874 -217.65891,160.48727 z M -324.99225,145.50883 C -326.38601,137.83941 -318.01759,133.61528 -311.96981,131.57699 C -306.44821,129.4364 -301.33788,124.37622 -295.06433,125.45425 C -288.70786,126.52172 -293.22339,132.39563 -297.67834,131.68521 C -305.45461,133.79223 -313.23714,137.02823 -319.25988,142.47506 C -320.58722,144.10912 -322.49462,147.31397 -324.99225,145.50883 z M -188.65891,115.67551 C -184.51343,109.35286 -185.752,121.68241 -188.65891,115.67551 z M -203.01389,106.98273 C -204.61914,103.32104 -211.8398,96.7152 -207.30224,94.163358 C -203.5672,97.597052 -201.29575,102.29731 -198.00988,106.12941 C -194.08734,112.48508 -200.6632,110.31316 -203.01389,106.98273 z M -234.65891,78.675514 C -230.51344,72.35287 -231.75199,84.682405 -234.65891,78.675514 z M -247.41898,73.631012 C -250.33394,67.963835 -259.78553,64.939263 -258.73269,57.967977 C -260.82527,55.142218 -264.91933,64.69566 -266.29079,58.74375 C -261.44095,54.735891 -260.3971,48.196017 -263.86271,42.717018 C -266.30465,39.346748 -261.94275,35.58529 -260.84423,40.485871 C -259.94513,45.986689 -253.50851,48.873211 -254.6797,53.705402 C -252.09737,54.849414 -250.15887,52.749912 -252.18068,56.402952 C -253.33477,63.341397 -246.48051,67.373694 -243.07152,72.366485 C -240.41656,76.094132 -245.87599,75.147114 -247.41898,73.631012 z M -266.65891,28.675514 C -262.51344,22.35287 -263.75199,34.682405 -266.65891,28.675514 z M -509.9696,268.64343 C -500.81094,262.95029 -505.68406,246.3901 -516.44651,246.4118 C -525.91218,245.54498 -533.36824,258.1435 -527.08911,265.70859 C -523.33696,270.9786 -515.25823,272.40003 -509.9696,268.64343 z M -43.969604,268.64343 C -34.810934,262.9503 -39.684051,246.3901 -50.446506,246.4118 C -59.91218,245.54498 -67.368237,258.14349 -61.089124,265.70859 C -57.336976,270.97861 -49.258242,272.40002 -43.969604,268.64343 z M -46.057972,199.66924 C -37.917276,193.10234 -31.284865,183.79252 -29.927756,173.24331 C -29.628259,161.10187 -38.95834,151.49168 -48.324534,145.08444 C -55.117666,144.51896 -57.211032,136.37458 -55.217558,130.83614 C -53.099866,120.25939 -52.240202,109.2924 -54.715804,98.692078 C -56.42687,90.028808 -58.627112,81.298052 -63.235307,73.677332 C -68.539226,62.298699 -75.367226,51.220341 -85.687715,43.732894 C -91.458228,38.877106 -99.189917,34.97757 -101.43284,27.229443 C -103.34721,21.354382 -104.61327,14.769829 -109.57426,10.575933 C -119.79067,-2.4821339 -132.68377,-13.639943 -147.69373,-20.824486 C -146.94903,-17.08301 -156.8326,-10.106605 -154.73582,-17.12898 C -148.30099,-21.611588 -156.80205,-30.043388 -162.29882,-25.767282 C -166.86392,-22.439223 -169.80605,-17.166877 -171.76238,-11.955167 C -172.10183,-6.9216174 -181.37103,-6.0599919 -177.10908,-11.724823 C -174.22614,-17.967869 -169.73704,-23.310378 -164.84549,-28.078949 C -166.86698,-33.05758 -174.52829,-31.543152 -178.6884,-34.213364 C -189.09468,-37.21524 -200.0162,-37.385985 -210.74198,-37.400692 C -217.17033,-40.373891 -219.79673,-48.227325 -226.84694,-50.696877 C -235.07702,-56.734824 -244.93731,-59.65464 -253.87125,-64.404633 C -265.91485,-70.349027 -279.29794,-73.832394 -292.79235,-73.213833 C -300.00664,-72.671206 -307.68038,-74.285482 -314.39167,-70.866866 C -320.57642,-68.008528 -326.13227,-63.950703 -332.28336,-61.043895 C -339.85176,-55.862413 -344.77428,-47.920151 -351.17459,-41.516617 C -357.57628,-38.270593 -363.52437,-44.666188 -370.00896,-44.087393 C -382.27023,-44.812023 -395.06927,-44.410855 -406.22655,-38.660711 C -412.58903,-35.380949 -418.20037,-30.847085 -423.8052,-26.439302 C -428.4786,-22.363691 -432.5528,-17.553957 -435.53662,-12.10432 C -431.48415,-12.686029 -428.02081,-3.4531674 -434.17382,-6.5214149 C -439.8133,-12.286339 -445.00478,-2.887811 -445.63159,2.1897738 C -448.70352,7.9351343 -450.53084,14.178992 -452.91948,20.041613 C -456.73014,24.465484 -463.14918,24.185783 -467.83039,27.277771 C -475.23686,31.253833 -481.7979,36.570091 -488.75968,41.238963 C -494.76846,45.477989 -499.33486,51.285267 -503.27855,57.401806 C -509.84708,66.052324 -515.7786,75.59458 -517.56953,86.488716 C -520.41117,98.084638 -521.73119,110.10072 -520.94391,122.03135 C -518.50113,121.06337 -510.84579,115.3171 -511.82774,121.2158 C -516.0495,123.89317 -524.67969,128.00792 -519.94297,133.99098 C -516.46643,138.70209 -510.70275,124.69952 -509.95579,132.60068 C -514.70916,136.77132 -520.13149,144.19782 -514.50157,149.967 C -510.53629,158.23325 -507.35642,167.29774 -500.29189,173.56082 C -494.66875,179.128 -487.18895,183.5944 -478.97439,182.62409 C -471.26041,182.16148 -463.92359,177.65169 -460.34673,170.76046 C -450.73044,159.21734 -433.99808,158.62551 -423.24614,148.59036 C -404.75609,133.38574 -387.62037,116.07849 -375.29495,95.405559 C -371.072,89.882041 -368.17434,82.243885 -362.5024,78.466493 C -354.6579,76.986514 -346.54489,77.92535 -338.76112,75.948774 C -335.04906,76.19499 -327.2642,71.99303 -333.80222,69.245344 C -336.55537,67.941324 -345.5019,66.178486 -342.69988,62.682199 C -334.92869,61.896283 -329.56939,70.437557 -321.78347,69.561018 C -319.35107,68.348765 -325.17052,65.649042 -320.43459,65.657795 C -313.82651,66.246005 -307.32386,65.027113 -302.49284,60.081236 C -295.76512,54.201325 -290.34046,46.969364 -285.11265,39.776958 C -278.73142,29.135046 -276.70449,16.580684 -275.14834,4.4569116 C -274.72577,-1.8501931 -273.34346,-8.0005012 -272.30192,-14.206863 C -271.69843,-19.360053 -272.68843,-25.293647 -277.01244,-28.663395 C -278.53272,-33.270734 -286.47434,-36.962378 -284.55482,-41.657102 C -278.97251,-40.230552 -276.0635,-33.796243 -272.21131,-29.861121 C -267.95544,-24.103707 -269.57217,-16.920154 -268.88324,-10.33556 C -268.17874,-2.2277019 -265.37489,5.5266999 -261.72383,12.726293 C -257.95025,23.00886 -250.45459,31.414361 -246.66521,41.6994 C -242.74272,49.198408 -238.31328,56.738839 -231.96516,62.428158 C -223.96168,67.869115 -214.12983,69.095544 -205.28261,72.583996 C -200.7601,79.699952 -201.52104,89.93631 -193.99646,95.098499 C -185.91348,103.39766 -175.90883,109.68805 -165.37679,114.37841 C -158.4405,117.27166 -148.94291,117.82789 -145.57569,125.65973 C -143.247,132.35983 -142.57935,139.79731 -138.5926,145.75945 C -135.00159,152.38946 -133.90255,142.214 -132.87412,139.39441 C -132.70801,135.97441 -127.63004,134.82268 -129.22716,139.32185 C -129.21372,146.19496 -136.51594,153.52706 -130.57408,159.35586 C -124.30537,169.50846 -116.66637,178.7378 -108.38041,187.27332 C -102.92747,192.04363 -96.557828,195.85116 -89.998646,198.81085 C -79.941989,201.29039 -69.394381,200.57838 -59.364873,203.20676 C -54.758531,202.91524 -50.159524,201.82295 -46.057972,199.66924 z M -487.9184,177.7462 C -491.67992,177.86808 -499.69319,171.16091 -495.30484,169.11042 C -490.20036,171.92611 -485.10253,177.00282 -478.75572,174.41824 C -475.73523,173.75492 -468.63187,166.42036 -470.67272,173.38413 C -473.94349,178.48825 -481.46901,180.27216 -487.00609,178.27443 L -487.9184,177.7462 L -487.9184,177.7462 z M -86.158905,166.29948 C -97.781081,163.02215 -108.89671,155.44477 -113.36214,143.82961 C -116.82082,136.95972 -119.62752,129.21521 -118.34579,121.41567 C -112.6586,121.92443 -117.14067,130.77107 -113.21694,133.762 C -110.23469,145.9801 -101.18962,156.48331 -89.504794,161.15069 C -82.093708,165.3769 -72.831102,165.6341 -64.907079,162.73169 C -65.738611,168.88109 -73.461794,168.71397 -78.164787,167.95895 C -80.865681,167.60158 -83.528778,167.00272 -86.158905,166.29948 z M -467.65891,164.67551 C -463.51343,158.35286 -464.752,170.68241 -467.65891,164.67551 z M -499.65891,159.67551 C -495.51343,153.35286 -496.752,165.68241 -499.65891,159.67551 z M -444.65891,150.39383 C -439.4694,146.48832 -430.50412,144.07881 -430.79691,136.15728 C -428.82868,134.10628 -427.14799,140.37045 -427.97401,136.04125 C -429.28611,133.03864 -423.71527,126.93085 -424.1401,132.3296 C -425.49848,136.99971 -420.57928,137.87296 -418.85563,133.74143 C -417.29322,131.50406 -410.67363,125.66754 -410.41233,130.86573 C -414.56966,137.41335 -423.13422,140.08591 -426.07038,147.56214 C -429.20593,146.07247 -430.13474,149.1404 -430.93177,150.13751 C -434.86433,149.19045 -442.6282,153.1373 -444.65891,150.39383 z M -493.6745,131.3185 C -502.85119,125.12113 -503.92772,112.89596 -503.41168,102.78194 C -502.4876,87.665146 -500.33524,71.178276 -489.5421,59.634591 C -487.14795,56.590627 -479.53735,51.172842 -477.62159,55.204011 C -481.32058,59.792151 -487.5244,61.757641 -490.34213,67.276658 C -496.69838,76.730191 -498.86834,88.293717 -500.27523,99.406425 C -500.7509,106.61871 -500.83988,114.41376 -497.44153,120.97144 C -495.32857,125.40689 -487.57382,129.30432 -487.82504,133.06671 C -489.9559,133.49962 -491.78545,132.01052 -493.6745,131.3185 z M -467.65891,122.34472 C -460.15105,118.66341 -451.15729,120.58202 -443.7551,116.58352 C -434.04,114.49936 -425.18122,109.46258 -417.03573,103.96585 C -407.99237,96.346304 -400.21798,86.786112 -396.54628,75.408581 C -395.00614,71.238676 -393.82392,66.886724 -393.60871,62.427694 C -387.60453,61.987404 -391.75657,71.973584 -392.54319,75.644564 C -398.03375,91.232864 -408.90144,105.19321 -423.82606,112.7035 C -431.38781,117.12437 -439.8593,119.4597 -448.34962,121.2886 C -454.00283,122.75431 -460.02143,125.48246 -465.87724,123.62944 L -466.83239,123.07975 L -467.65891,122.34472 L -467.65891,122.34472 z M -171.58195,77.911644 C -183.41764,72.155162 -190.05401,57.843896 -187.18012,45.057732 C -186.816,36.972856 -196.28643,38.621704 -201.49441,38.64635 C -210.13346,37.777101 -218.92212,33.128309 -222.41224,24.815888 C -228.13955,14.809382 -229.68152,3.0128594 -229.44025,-8.3523472 C -223.17522,-6.5675686 -227.55882,2.1965875 -225.06867,6.829869 C -222.76243,17.725826 -217.41599,29.610261 -206.45148,34.058103 C -200.02906,36.39728 -192.66248,33.678286 -186.50442,36.805937 C -181.60223,41.813161 -186.87385,49.393438 -184.07359,55.388518 C -182.56418,62.333846 -178.59019,68.929495 -172.50867,72.772792 C -169.1715,78.153354 -158.99022,74.44564 -156.97016,79.260452 C -161.30917,81.902988 -167.21611,79.346296 -171.58195,77.911644 z M -82.658905,66.713898 C -85.959237,59.110043 -94.109173,55.856332 -100.65891,51.675514 C -94.474022,48.064049 -88.283037,53.881095 -84.059787,57.957174 C -81.169927,59.718543 -77.19422,66.513564 -81.425028,68.009852 L -82.153882,67.423546 L -82.658905,66.713898 L -82.658905,66.713898 z M -366.33554,55.304066 C -369.75024,49.554958 -375.5438,44.213225 -374.87715,36.955828 C -370.71303,34.667415 -369.54708,44.002331 -367.50413,46.813354 C -365.18107,53.354807 -357.09691,56.675431 -351.27718,52.334228 C -346.50258,49.449806 -342.72197,43.91783 -336.86004,47.028912 C -330.99733,47.23099 -325.34059,45.216878 -319.55471,44.607982 C -309.50829,42.384491 -298.77584,37.144611 -294.80094,27.00403 C -288.18362,17.631623 -289.44082,5.5495199 -285.86233,-4.9159578 C -280.00094,-7.1662374 -284.67567,2.7220927 -284.73216,5.7894183 C -285.86427,15.441373 -288.04604,25.221935 -293.67339,33.340481 C -299.28234,42.509295 -309.90075,46.71197 -320.08545,48.278541 C -326.85987,49.428067 -333.73465,49.744798 -340.55597,50.503108 C -347.00505,56.843078 -356.94921,57.908802 -365.47935,56.692764 L -365.86031,56.331312 L -366.33554,55.304066 L -366.33554,55.304066 z M -128.65891,23.354074 C -129.91471,13.518039 -136.32062,3.847504 -146.1587,0.98518525 C -151.46294,-3.0582008 -139.92946,-3.6381009 -138.68886,0.16138061 C -130.47316,5.1930273 -124.85423,14.823634 -125.69489,24.569364 C -126.96805,28.600942 -129.16785,26.408798 -128.65891,23.354074 z M -393.64359,-19.574486 C -389.72155,-28.167582 -378.93943,-30.652309 -370.344,-29.559446 C -363.60131,-27.497124 -356.04478,-27.094111 -350.22906,-22.77195 C -346.31442,-19.577777 -351.52445,-16.94673 -354.09998,-20.268749 C -358.83822,-23.945618 -364.71791,-24.931074 -370.38397,-26.268958 C -377.6578,-27.18506 -385.48358,-24.616126 -390.27984,-18.95171 C -391.23825,-17.879911 -394.05525,-17.255289 -393.64359,-19.574486 z M -201.72357,-42.480747 C -196.53662,-54.85113 -193.90101,-68.117802 -188.82607,-80.526787 C -185.57117,-90.237797 -179.98739,-100.18939 -182.74667,-110.75072 C -184.05705,-119.80836 -187.34685,-130.5172 -196.81154,-133.98661 C -212.29177,-140.21825 -229.03355,-141.95912 -245.20295,-145.59757 C -281.35054,-151.31225 -318.10032,-150.49096 -354.55706,-149.53802 C -361.64832,-149.01206 -368.78717,-147.71095 -375.26812,-144.6841 C -388.49239,-143.05089 -399.05566,-128.16422 -394.16185,-115.27895 C -388.57427,-97.261737 -377.52533,-81.553456 -371.70283,-63.616232 C -369.51842,-57.965173 -368.56063,-50.710389 -362.52548,-47.796117 C -358.1767,-44.518767 -351.2898,-44.994265 -349.18398,-50.572405 C -342.71669,-58.128717 -335.71868,-65.862624 -326.20692,-69.512374 C -318.89206,-73.598846 -310.97783,-78.73109 -302.19151,-77.228831 C -288.98065,-77.026269 -275.18871,-78.20785 -262.76189,-72.786974 C -252.82148,-70.089609 -244.38714,-63.733178 -234.57128,-60.70576 C -226.13985,-55.377767 -216.59221,-50.873156 -210.8168,-42.378021 C -208.07209,-40.355077 -204.67172,-41.989572 -201.72357,-42.480747 z M -214.65891,-55.32449 C -211.48237,-63.163054 -208.90161,-71.307133 -204.56052,-78.615144 C -198.7564,-75.695182 -206.32426,-68.140013 -207.48654,-63.801519 C -208.70626,-60.667077 -209.97,-51.568976 -214.31522,-54.269852 L -214.65891,-55.32449 L -214.65891,-55.32449 z M -354.65891,-56.32449 C -350.51344,-62.647134 -351.75199,-50.317599 -354.65891,-56.32449 z M -361.65891,-66.324493 C -366.00372,-74.998624 -369.12797,-84.269911 -374.29896,-92.52469 C -378.02804,-99.720508 -381.7817,-106.93215 -384.65891,-114.5218 C -377.54074,-114.26889 -377.29227,-105.26379 -374.1091,-100.57541 C -369.64562,-91.704399 -363.96251,-83.340638 -361.13929,-73.730153 C -359.13676,-72.619472 -356.5958,-61.701794 -361.65891,-66.324493 z M -197.65891,-85.324493 C -193.51343,-91.647128 -194.752,-79.317593 -197.65891,-85.324493 z M -383.65891,-129.32449 C -379.51343,-135.64714 -380.752,-123.31759 -383.65891,-129.32449 z M -399.32239,-126.01817 C -398.11503,-136.82485 -389.05729,-144.94686 -379.4502,-148.85147 C -386.6872,-151.51978 -385.82796,-161.41594 -392.20674,-165.04467 C -399.33387,-170.62525 -400.43619,-180.44919 -399.67378,-188.84786 C -400.11534,-198.60815 -391.71966,-205.64446 -384.10166,-210.21833 C -381.70523,-212.69436 -372.15071,-214.6843 -374.16664,-210.00941 C -383.234,-207.50057 -392.11672,-201.5469 -395.66141,-192.55378 C -398.01714,-183.87673 -396.68601,-172.48542 -388.17727,-167.62946 C -383.43047,-163.99197 -384.33373,-156.3557 -378.53289,-153.4238 C -372.75871,-148.13389 -365.91151,-152.90073 -359.45655,-153.10046 C -327.5708,-155.65831 -295.4809,-154.8728 -263.627,-152.25922 C -241.12548,-149.83461 -218.88164,-145.21249 -197.04075,-139.37899 C -190.51895,-136.59918 -185.98951,-130.92994 -180.86748,-126.27329 C -175.38878,-134.70255 -172.63799,-144.50201 -170.21416,-154.15729 C -172.18895,-160.70047 -183.90222,-159.50668 -183.3684,-166.76801 C -177.81957,-168.32161 -174.43657,-160.33948 -169.30738,-159.02205 C -162.65299,-156.1003 -159.66989,-164.06086 -155.52167,-167.49799 C -150.4374,-173.2165 -145.01926,-179.02505 -141.90649,-186.07486 C -138.98999,-197.18482 -144.36529,-208.21838 -149.85454,-217.59051 C -152.38523,-217.79344 -161.09085,-213.86884 -156.46632,-219.26039 C -153.57854,-224.10098 -162.44773,-228.5847 -166.39989,-229.34913 C -172.91668,-228.02599 -173.61677,-220.45859 -176.68058,-215.8703 C -181.92317,-212.7124 -178.6693,-223.06864 -176.56484,-224.96174 C -173.36849,-229.60381 -169.5383,-234.31727 -169.43985,-240.23898 C -166.80312,-252.8257 -168.17359,-266.09257 -173.22902,-277.90646 C -176.68461,-287.35952 -181.87717,-296.22885 -188.77058,-303.58893 C -188.35557,-314.47965 -191.13545,-326.02575 -198.3489,-334.4079 C -208.26261,-343.53517 -222.46239,-343.79735 -234.88516,-346.84448 C -243.05338,-348.35913 -251.47917,-348.93069 -259.72077,-347.65694 C -265.3777,-349.9849 -273.71586,-343.23679 -266.40639,-339.03455 C -263.20606,-335.47466 -270.0656,-330.73197 -270.05506,-336.78813 C -270.0315,-343.32735 -278.0623,-348.52311 -283.46452,-344.10901 C -284.14573,-340.28051 -278.73417,-332.95686 -283.85813,-331.02574 C -286.94485,-335.7749 -285.68837,-346.31599 -293.7412,-345.57926 C -305.84396,-345.08519 -318.77202,-346.84711 -330.00448,-341.12844 C -341.33942,-337.17666 -348.25947,-326.25643 -352.95597,-315.83142 C -355.81046,-308.0309 -356.19593,-299.65714 -357.15891,-291.48569 C -366.15361,-285.97337 -376.20179,-280.70686 -381.28893,-270.97085 C -386.27157,-264.15234 -388.14938,-255.61651 -388.67545,-247.32449 C -380.31642,-242.87066 -371.26354,-239.862 -362.07898,-237.69579 C -357.82893,-234.83046 -363.16589,-232.35169 -365.8528,-234.68419 C -373.94417,-236.85805 -381.71338,-240.05521 -389.3507,-243.46603 C -387.98616,-237.4814 -386.09948,-227.64525 -393.92185,-225.45997 C -402.4882,-223.09098 -409.87717,-217.67993 -415.89345,-211.26804 C -423.28107,-202.67722 -425.19802,-190.88505 -426.01228,-179.93341 C -426.44756,-171.10686 -426.36665,-162.22921 -426.23419,-153.41445 C -426.71216,-148.14722 -421.96047,-136.42837 -416.44016,-144.1395 C -414.02298,-146.16766 -407.28392,-152.85459 -405.62289,-148.57276 C -408.82245,-143.31785 -417.03245,-141.84013 -417.68529,-134.86432 C -418.01265,-129.61931 -412.92481,-130.31742 -411.30027,-134.37924 C -408.88172,-137.19273 -403.83116,-145.80311 -400.29655,-141.78688 C -402.80619,-135.83023 -410.83185,-133.37642 -411.44052,-126.44648 C -410.38313,-122.58011 -402.96546,-119.07906 -399.78069,-122.60634 C -399.19662,-123.63517 -399.18275,-124.87668 -399.32239,-126.01817 z M -238.65891,-164.12691 C -232.07773,-168.95539 -221.74954,-165.52024 -216.57959,-172.76028 C -212.34256,-178.49303 -215.23006,-188.05179 -222.24836,-189.96236 C -221.4223,-194.17967 -214.33412,-196.39217 -212.2106,-200.9029 C -208.27582,-206.00303 -202.09189,-211.74069 -205.74254,-218.67164 C -208.02869,-224.69901 -209.07466,-231.34763 -213.43599,-236.36938 C -215.89388,-238.5363 -217.78312,-243.68426 -212.71178,-241.37705 C -207.15362,-237.86301 -205.34386,-231.40699 -204.09781,-225.37891 C -202.08857,-218.96554 -199.13589,-211.48553 -203.37127,-205.26987 C -206.45264,-199.91321 -212.86847,-196.61296 -214.16933,-190.28878 C -210.28238,-183.10414 -210.26091,-173.11249 -216.36551,-167.15631 C -221.38452,-163.16237 -228.37812,-164.4187 -234.33549,-162.94187 C -235.84646,-162.95225 -237.37175,-163.3164 -238.65891,-164.12691 z M -304.15891,-187.82449 C -310.93685,-186.35446 -316.23588,-193.13665 -315.91162,-199.45765 C -317.45024,-205.92742 -311.48591,-212.77735 -314.89236,-218.63021 C -319.565,-221.47447 -324.91086,-223.14033 -329.17838,-226.76332 C -334.35884,-230.61496 -340.05897,-235.90822 -339.56472,-242.94828 C -340.36116,-253.70941 -339.22134,-265.7555 -331.32155,-273.86006 C -327.30769,-276.19459 -318.9382,-278.3653 -324.47177,-284.03646 C -331.19212,-295.48582 -331.77913,-311.94844 -321.99592,-321.88341 C -315.94819,-327.22535 -307.44219,-331.58038 -299.22344,-329.21398 C -294.77155,-326.3118 -304.24478,-327.02847 -306.00753,-325.91682 C -313.00713,-324.7676 -319.23027,-320.44201 -322.5859,-314.1838 C -326.7448,-307.75908 -327.94592,-298.92766 -323.91674,-292.14981 C -323.55084,-286.46829 -315.54327,-282.15755 -316.38062,-277.32813 C -323.75259,-273.92249 -332.79782,-269.98135 -334.60922,-261.12201 C -337.12442,-252.51902 -338.94918,-241.70886 -332.04915,-234.58105 C -325.80665,-227.3043 -316.63517,-223.78912 -308.29923,-219.56688 C -306.32228,-212.87745 -315.04762,-208.37771 -313.08847,-201.33586 C -313.43711,-194.78956 -307.0744,-191.09024 -301.33097,-190.58433 C -298.50483,-191.17298 -290.81308,-187.21834 -297.43656,-186.78256 C -299.72128,-186.69789 -301.96126,-187.27567 -304.15891,-187.82449 z M -254.63695,-310.07449 C -252.10798,-315.92397 -249.38005,-323.3067 -253.45694,-329.12271 C -246.096,-329.93405 -246.71773,-319.95868 -248.67798,-315.31844 C -249.41591,-313.09666 -251.37931,-306.32005 -254.63695,-310.07449 z" style="fill:#000000" id="path3013"/>
      <path d="M -298.65891,505.89127 C -313.55977,504.10596 -328.50716,501.81423 -342.66411,496.64151 C -375.68571,485.72918 -405.42153,465.99535 -429.54743,441.07423 C -459.74407,410.71916 -480.61484,371.97559 -492.87749,331.1613 C -498.44088,310.92348 -502.47808,290.187 -503.92987,269.22571 C -510.05869,276.34007 -522.14498,277.35141 -528.82258,270.42731 C -535.24259,264.074 -534.67674,252.72865 -528.68195,246.28763 C -533.83414,236.69169 -532.90342,225.42007 -532.11856,214.94866 C -529.11853,205.86424 -524.58403,195.67522 -514.94317,192.11544 C -510.03783,188.24023 -498.15057,192.12956 -498.1273,183.64277 C -499.99588,178.10393 -505.73795,175.20299 -508.90131,170.44385 C -512.93657,165.6793 -515.0029,159.73615 -516.97937,153.93851 C -519.69746,148.3471 -524.69925,142.97458 -523.48675,136.28903 C -522.95961,128.51359 -532.95413,129.22178 -537.50659,132.22337 C -540.17298,134.32455 -548.95164,138.43313 -548.63542,133.31123 C -544.71581,130.10871 -539.3923,129.37012 -534.6825,127.84291 C -528.62143,127.13691 -524.6892,123.01992 -525.75407,116.80559 C -524.17401,98.179109 -523.29166,78.13244 -512.17645,62.279506 C -507.22571,55.252447 -502.2238,48.161763 -496.3427,41.889312 C -488.93721,34.897381 -479.73706,30.286778 -471.71566,24.097079 C -464.09348,21.477809 -455.02236,17.605895 -452.9614,8.9332134 C -453.0549,1.432713 -445.52248,-3.4930831 -445.10918,-10.706164 C -448.09377,-17.044112 -456.99905,-17.053843 -463.03678,-18.684059 C -467.90237,-20.67325 -475.86055,-15.314751 -478.60921,-20.293937 C -473.41509,-22.46356 -466.80933,-21.544831 -461.0678,-21.576442 C -454.7476,-21.43459 -449.00169,-18.674391 -443.56266,-15.842732 C -437.26769,-15.170954 -434.19025,-21.837749 -430.75402,-25.912008 C -425.02316,-32.081621 -417.73047,-36.547789 -410.70898,-41.082009 C -403.71006,-45.134364 -395.84426,-48.112692 -387.66989,-48.187228 C -382.98712,-50.90979 -372.02676,-44.088388 -372.08638,-51.852832 C -374.40658,-58.599727 -377.50183,-65.050543 -379.53439,-71.930076 C -384.40879,-82.790137 -390.51174,-93.081135 -394.75041,-104.22774 C -396.77551,-109.17013 -399.03213,-115.27024 -404.7465,-116.80778 C -409.59752,-117.99125 -416.14184,-126.32015 -419.35791,-119.17281 C -423.23196,-114.02096 -426.07411,-107.72084 -425.73795,-101.15553 C -431.46693,-100.51732 -428.01968,-110.05843 -427.42549,-113.51206 C -426.31614,-119.42197 -417.4724,-123.06202 -419.90288,-129.38263 C -424.41651,-134.17395 -428.73647,-126.88729 -429.16429,-122.63367 C -429.00723,-119.23677 -432.11606,-115.89018 -432.73951,-121.09053 C -433.18809,-126.79046 -429.23195,-131.39703 -425.72407,-135.35183 C -424.212,-141.11545 -432.03602,-145.23608 -430.16142,-151.74528 C -430.86092,-170.85046 -431.93977,-191.05835 -423.35689,-208.75499 C -418.83089,-216.09934 -411.59917,-221.48248 -404.32444,-225.95313 C -399.24279,-228.65409 -390.73642,-229.28168 -392.15639,-237.44106 C -391.65262,-244.04019 -396.07142,-248.75376 -402.17845,-250.74734 C -406.87244,-251.12937 -405.4792,-260.86514 -401.49318,-255.37661 C -398.31649,-250.55761 -389.11837,-250.60811 -391.5845,-258.01138 C -389.72399,-268.99534 -382.05365,-277.76985 -374.79189,-285.71883 C -370.011,-289.58106 -362.54535,-291.0024 -360.46644,-297.51293 C -360.09137,-309.03152 -357.57203,-321.09787 -349.87684,-330.05809 C -345.34043,-337.29767 -338.66197,-343.9347 -330.03271,-345.73831 C -318.73148,-351.34022 -305.81625,-349.07143 -293.71092,-350.27981 C -292.81198,-355.27173 -301.9342,-359.07873 -299.16801,-362.94206 C -292.75414,-362.42045 -292.01349,-353.81752 -286.98483,-350.82062 C -283.17402,-346.67345 -273.80527,-350.13711 -279.81015,-355.53434 C -282.22593,-359.04217 -290.54532,-363.99962 -286.70607,-368.29101 C -279.35392,-364.62658 -277.99498,-354.2258 -270.00259,-351.30337 C -262.83095,-350.58806 -255.57319,-352.98261 -248.29498,-352.46559 C -237.78677,-352.58897 -227.6338,-349.62618 -217.36247,-347.82966 C -206.84427,-345.57886 -195.36677,-341.1148 -190.40323,-330.84037 C -186.40564,-323.75859 -185.01214,-315.60546 -184.22261,-307.64578 C -181.29608,-298.78116 -173.14142,-292.73979 -170.69003,-283.63805 C -166.37773,-272.72029 -162.50889,-260.919 -164.30453,-249.04188 C -164.34373,-245.57597 -165.84177,-239.89204 -164.22159,-237.79202 C -158.17075,-240.13021 -155.05968,-247.42532 -148.21395,-248.11719 C -143.22194,-245.90416 -152.28365,-241.97038 -154.48304,-240.44975 C -159.93899,-238.45222 -162.4352,-231.26953 -156.42209,-228.58682 C -153.2542,-222.84052 -147.7284,-227.66226 -145.15011,-231.09972 C -140.65111,-234.91861 -135.52644,-238.23688 -129.7289,-239.63721 C -130.64433,-232.81229 -139.24042,-232.48354 -143.23291,-228.03599 C -148.47553,-225.19224 -148.19352,-219.45026 -143.95261,-216.06432 C -138.24666,-206.13963 -134.68335,-193.93326 -138.37267,-182.6753 C -144.52961,-172.14126 -153.27937,-163.50276 -161.73634,-154.83311 C -162.4094,-148.38531 -153.80935,-146.65475 -152.90803,-140.67253 C -151.02796,-138.57294 -151.14676,-130.3531 -154.5616,-133.73129 C -156.98061,-139.77604 -160.07787,-146.07806 -165.43602,-149.99739 C -168.77476,-147.14582 -168.42468,-141.12497 -170.7077,-137.12644 C -172.86343,-131.29956 -175.6103,-125.69347 -178.86714,-120.40343 C -180.62274,-111.84996 -175.10425,-102.96108 -179.21192,-94.682728 C -184.82115,-77.360907 -191.51797,-60.390108 -196.38526,-42.830774 C -189.66243,-38.610785 -181.02772,-41.153261 -174.15891,-37.330976 C -168.67494,-35.906636 -160.92487,-30.926388 -156.49998,-36.870998 C -155.72893,-39.873804 -148.8024,-45.609127 -149.92302,-39.239464 C -153.73851,-35.841934 -158.77334,-30.821232 -151.31264,-28.403578 C -146.23076,-23.506616 -144.37805,-31.516011 -140.56724,-33.731901 C -136.62287,-36.778163 -132.43751,-39.568534 -128.24309,-42.221291 C -121.75826,-42.334591 -129.71495,-35.942141 -132.01243,-34.737495 C -136.85956,-32.088804 -147.9295,-24.79676 -138.44146,-20.561277 C -132.78744,-18.269039 -128.38152,-14.023564 -123.57384,-10.389616 C -114.1703,-2.5923656 -105.98993,6.7346796 -99.793471,17.27819 C -98.554287,26.219199 -93.137367,34.738246 -84.810425,38.56652 C -72.687663,47.798002 -63.81129,60.694974 -57.803585,74.565359 C -53.063161,82.314719 -52.192519,91.576214 -49.823695,100.16837 C -47.860671,112.44443 -50.352717,124.78114 -51.422577,137.01193 C -41.750088,144.89025 -29.951242,152.29762 -26.467082,165.0898 C -23.786225,175.72033 -28.204378,186.95541 -35.397204,194.78584 C -39.244918,200.39581 -33.281309,203.66459 -29.384211,206.08141 C -23.959659,212.92292 -26.207578,222.23335 -26.229813,230.24846 C -26.669734,239.33907 -27.539335,248.93572 -32.658903,256.75108 C -34.663102,264.91345 -39.927477,274.20689 -49.182297,275.06877 C -56.227716,272.18371 -59.111384,281.18581 -58.115061,286.56922 C -59.405598,293.37333 -61.012564,300.11595 -62.02095,306.9813 C -67.058301,335.36552 -77.574234,362.59037 -91.448183,387.78986 C -103.42579,409.15422 -118.04257,429.17592 -135.93658,445.98327 C -157.4985,466.98174 -183.26814,483.86956 -211.48432,494.46024 C -221.98593,498.21466 -232.75223,501.32065 -243.68959,503.49988 C -259.86713,506.22353 -276.34013,505.72431 -292.6803,506.0728 C -294.67406,506.05039 -296.66764,505.99436 -298.65891,505.89127 z" style="fill:#000000" id="path3117"/>
      <path d="M -250.82614,499.67062 C -219.80007,494.81537 -189.77485,482.90646 -164.50462,464.15164 C -139.00189,445.80056 -117.75239,421.84923 -101.13744,395.27104 C -87.855761,373.65766 -77.922555,350.10482 -71.113142,325.68878 C -67.335865,313.32142 -64.822981,300.60787 -63.407459,287.76189 C -62.598529,282.47243 -61.548844,277.1417 -61.929241,271.76516 C -68.917621,265.42583 -69.89358,253.11626 -62.550668,246.63933 C -55.550089,240.10998 -42.776003,241.11289 -37.349244,249.17746 C -30.026181,249.67881 -32.486872,239.61367 -31.147144,234.9263 C -30.281549,227.04646 -28.373585,218.45661 -32.020978,211.00464 C -35.245331,203.95095 -43.726696,202.671 -50.172011,205.77856 C -56.823144,208.36495 -63.642745,205.73593 -70.443122,205.71639 C -81.357958,204.89694 -93.227005,204.40701 -102.23078,197.3882 C -115.72442,188.30875 -125.90531,175.25081 -134.42589,161.59174 C -135.37778,166.91717 -133.88943,173.43821 -134.22376,179.20469 C -134.54658,181.89369 -133.64633,189.96234 -135.63502,189.06065 C -139.72741,182.60918 -136.70532,174.71597 -137.50197,167.60398 C -137.26198,159.76367 -139.23369,151.92379 -143.58728,145.34973 C -148.0405,139.59503 -146.75913,131.70845 -150.75248,125.78993 C -155.78322,120.27401 -164.44851,120.88052 -170.57853,116.82222 C -183.86673,110.32583 -196.77383,101.44932 -204.30583,88.381757 C -206.16894,82.8631 -206.44947,73.663734 -214.43712,74.059435 C -224.49018,71.564276 -235.55576,68.039815 -241.37882,58.762329 C -249.152,49.094685 -252.93953,37.068073 -259.63362,26.728556 C -263.15421,20.654338 -266.46781,14.397233 -268.60511,7.6854372 C -272.54569,4.1754356 -271.39995,13.840018 -272.67733,16.052631 C -274.65959,27.035274 -277.37885,38.490586 -284.93915,47.096356 C -291.01684,55.630115 -298.81636,62.747722 -306.89289,69.346345 C -303.41233,70.13192 -300.98532,79.534414 -306.40114,75.471583 C -310.86429,69.464925 -318.19656,74.651513 -322.17295,76.474217 C -329.77837,75.122499 -336.01764,81.704089 -343.59844,81.091548 C -349.70312,81.364721 -355.74718,82.372039 -361.84967,82.675514 C -373.21322,100.90228 -384.51269,119.64997 -400.73715,134.05248 C -410.18849,143.32068 -419.78083,152.85009 -431.43652,159.31513 C -441.49623,163.96043 -453.49465,167.13 -459.58447,177.25493 C -466.2579,185.6236 -478.20241,189.28935 -488.36536,185.78713 C -493.10379,184.62725 -495.73845,189.66237 -496.46119,192.722 C -504.45504,195.36217 -514.74366,193.78231 -520.45622,201.20523 C -527.64963,211.0745 -529.1581,223.89032 -527.516,235.69875 C -528.43301,242.71107 -521.6082,244.26352 -516.45259,242.19227 C -508.44413,242.33636 -501.52682,249.08004 -500.68008,256.97686 C -496.97233,281.32032 -496.32231,306.36815 -488.26183,329.86279 C -476.35322,370.07145 -455.67459,407.99915 -426.25723,438.08601 C -399.47316,465.9574 -365.13333,486.9093 -327.44767,496.06489 C -302.49426,502.4817 -276.26295,504.09632 -250.82614,499.67062 z" style="fill:#e8cdba;fill-opacity:1" id="path3115"/>
      <path d="M -40.230309,279.31836 C -39.57524,317.76922 -66.44186,354.69744 -103.07294,366.24784 C -136.7239,377.5814 -176.617,367.0504 -199.95832,340.1889 C -224.15916,313.49686 -230.17045,271.91839 -214.10235,239.59343 C -198.94098,207.76886 -164.14212,186.29724 -128.80398,187.85645 C -91.990024,188.6915 -56.967395,214.0899 -45.334746,249.13708 C -41.953988,258.8153 -40.2145,269.06605 -40.230309,279.31836 z" style="fill:url(#radialGradient4658);fill-opacity:1;fill-rule:nonzero;stroke:none;stroke-width:0.89600003;stroke-linecap:round;stroke-linejoin:round;stroke-miterlimit:4;stroke-dasharray:none;stroke-dashoffset:0;stroke-opacity:1" id="path4015"/>
      <path d="M -300.65891,493.67551 C -296.51343,487.35286 -297.752,499.68241 -300.65891,493.67551 z" style="fill:#000000" id="path3113"/>
      <path d="M -324.15891,492.62619 C -328.05094,491.00387 -335.71215,490.66356 -336.45319,486.49823 C -331.23047,484.76767 -325.97765,489.11288 -320.60739,489.32112 C -314.75323,489.51517 -309.62412,495.77393 -318.42566,493.86771 C -320.35848,493.55874 -322.24278,493.01664 -324.15891,492.62619 z" style="fill:#000000" id="path3111"/>
      <path d="M -308.65891,492.67551 C -304.51343,486.35286 -305.752,498.68241 -308.65891,492.67551 z" style="fill:#000000" id="path3109"/>
      <path d="M -344.65891,483.67551 C -340.51343,477.35286 -341.752,489.68241 -344.65891,483.67551 z" style="fill:#000000" id="path3107"/>
      <path d="M -352.65891,481.17551 C -349.17485,473.88401 -350.02267,487.80024 -352.65891,481.17551 z" style="fill:#000000" id="path3105"/>
      <path d="M -324.51602,269.31836 C -323.86094,307.76922 -350.72756,344.69744 -387.35864,356.24784 C -421.0096,367.5814 -460.9027,357.05039 -484.24402,330.1889 C -508.44488,303.49687 -514.45614,261.91839 -498.38804,229.59343 C -483.22668,197.76885 -448.42782,176.29724 -413.08968,177.85645 C -376.27573,178.6915 -341.25309,204.08989 -329.62045,239.13708 C -326.23969,248.8153 -324.50019,259.06605 -324.51602,269.31836 z" style="fill:url(#radialGradient4666);fill-opacity:1;fill-rule:nonzero;stroke:none;stroke-width:0.89600003;stroke-linecap:round;stroke-linejoin:round;stroke-miterlimit:4;stroke-dasharray:none;stroke-dashoffset:0;stroke-opacity:1" id="path3120"/>
      <path d="M -316.15891,439.17551 C -334.041,437.70306 -350.7445,430.19454 -366.32334,421.7381 C -382.55386,413.14714 -396.14633,400.0828 -406.69003,385.14795 C -412.29099,377.21327 -415.76934,368.05269 -420.13488,359.42463 C -424.46697,349.23344 -428.24441,338.80235 -431.90126,328.34922 C -436.14049,314.70954 -438.25755,300.39692 -438.54878,286.12269 C -438.5953,280.45182 -438.24578,274.77416 -437.42531,269.16144 C -432.77876,273.83105 -435.41528,280.89893 -434.66063,286.70449 C -434.51589,296.73984 -433.05261,306.70262 -430.68942,316.43313 C -428.40046,329.39379 -421.91144,341.04207 -418.03546,353.50764 C -414.76039,360.96898 -410.64963,368.04472 -407.56968,375.5892 C -394.61416,400.22227 -370.54786,416.9176 -345.19593,427.01126 C -335.36874,430.92411 -325.23101,434.88752 -314.5113,435.00845 C -301.58781,435.89097 -288.62066,436.11611 -275.67348,435.72264 C -265.92539,433.35194 -256.14175,431.03457 -246.52372,428.23015 C -229.21572,424.78313 -214.17873,415.00517 -198.8121,406.86571 C -182.79719,396.49531 -170.04993,381.969 -157.98727,367.39081 C -147.53857,353.53664 -137.31558,339.24075 -130.76467,323.06177 C -125.41648,312.77568 -119.0873,302.85467 -115.87852,291.61419 C -111.64644,281.00211 -105.87778,270.45579 -105.93233,258.72623 C -110.70506,253.45471 -118.80397,257.25802 -124.20364,253.28018 C -120.43324,249.40541 -113.50179,251.611 -108.74429,252.59129 C -102.68013,255.03725 -95.394295,258.99684 -93.134782,265.15662 C -93.557745,271.54824 -98.008341,266.15798 -100.40485,264.51556 C -105.35754,268.20309 -103.38427,276.38606 -106.81974,281.45094 C -111.42624,290.54203 -114.0776,300.44722 -118.42638,309.63898 C -126.86795,323.39726 -132.19912,338.93358 -142.01784,351.87126 C -157.98515,375.16028 -176.16052,398.05688 -200.71443,412.75893 C -212.42068,419.65539 -224.75019,425.57907 -237.51389,430.22498 C -246.11366,432.63636 -254.7869,434.82421 -263.37543,437.23935 C -272.98961,439.52112 -282.8694,440.904 -292.75654,440.12762 C -300.56194,440.16993 -308.4239,440.43883 -316.15891,439.17551 z" style="fill:#000000" id="path3103"/>
      <path d="M -455.90906,287.59201 C -456.28215,278.90113 -450.95858,270.93815 -443.92871,266.25399 C -439.37659,262.77862 -432.19333,257.14013 -426.60073,260.6422 C -427.60377,265.08967 -435.31398,264.07765 -438.51542,267.76804 C -443.5606,271.45602 -449.26428,275.76442 -450.50256,282.27509 C -451.13772,284.83089 -452.60032,288.34674 -455.90906,287.59201 z" style="fill:#000000" id="path3101"/>
      <path d="M -42.227692,231.42551 C -38.674996,225.01818 -43.644491,215.29443 -51.232795,215.38272 C -55.773988,218.39157 -57.206663,210.86707 -51.969164,211.45366 C -45.820064,209.22707 -40.706334,215.67929 -38.479529,220.61952 C -36.238488,224.69503 -37.065207,233.64927 -42.388189,233.59141 L -42.448886,232.58126 L -42.227692,231.42551 L -42.227692,231.42551 z" style="fill:#000000" id="path3099"/>
      <path d="M -516.62372,231.24126 C -519.64872,222.01345 -516.23793,209.62079 -506.42173,206.12904 C -503.48851,204.9249 -494.93634,207.88615 -500.07666,211.14348 C -505.59122,206.83137 -511.53701,213.73876 -513.30023,218.71759 C -516.4384,223.75681 -513.03572,228.61165 -510.25914,232.32067 C -511.74225,234.00416 -515.52196,233.03681 -516.62372,231.24126 z" style="fill:#000000" id="path3097"/>
      <path d="M -83.658905,211.67551 C -79.513461,205.35287 -80.751948,217.68241 -83.658905,211.67551 z" style="fill:#000000" id="path3095"/>
      <path d="M -103.60607,205.04466 C -108.6766,202.12139 -117.805,199.04219 -117.12611,192.16563 C -111.5315,193.74424 -107.17465,199.11713 -101.59113,201.4297 C -99.636754,203.11594 -91.059918,205.93685 -94.525563,208.16926 C -97.844528,208.42011 -100.56537,205.94903 -103.60607,205.04466 z" style="fill:#000000" id="path3093"/>
      <path d="M -125.65891,186.67551 C -121.51347,180.35287 -122.75195,192.68241 -125.65891,186.67551 z" style="fill:#000000" id="path3091"/>
      <path d="M -452.65891,178.67551 C -448.51343,172.35286 -449.752,184.68241 -452.65891,178.67551 z" style="fill:#000000" id="path3089"/>
      <path d="M -256.20435,174.72096 C -262.28346,169.87153 -255.56639,158.74801 -248.43774,161.42171 C -242.04667,163.08715 -240.68909,172.52535 -246.48439,175.82844 C -249.43067,177.88362 -253.88035,177.59715 -256.20435,174.72096 z" style="fill:#000000" id="path3087"/>
      <path d="M -448.48224,173.59731 C -442.24675,170.25871 -436.29769,164.94433 -428.78032,165.35713 C -429.13824,170.04611 -435.93048,171.52439 -439.84845,173.04607 C -442.36274,173.68072 -446.62968,175.84211 -448.48224,173.59731 z" style="fill:#000000" id="path3085"/>
      <path d="M -421.65891,163.67551 C -417.51343,157.35286 -418.752,169.68241 -421.65891,163.67551 z" style="fill:#000000" id="path3083"/>
      <path d="M -301.20435,161.72096 C -307.28346,156.87153 -300.56639,145.74801 -293.43774,148.42171 C -287.04667,150.08715 -285.68907,159.52536 -291.48439,162.82844 C -294.43067,164.88362 -298.88035,164.59715 -301.20435,161.72096 z" style="fill:#000000" id="path3081"/>
      <path d="M -217.65891,160.48727 C -227.5461,152.18902 -238.03136,144.3638 -249.88035,139.0835 C -254.89009,132.77391 -242.7039,134.68061 -239.9878,137.3157 C -231.06411,142.98574 -222.44766,149.21052 -214.27801,155.93594 C -209.62648,158.47848 -213.82376,162.61874 -217.65891,160.48727 z" style="fill:#000000" id="path3079"/>
      <path d="M -324.99225,145.50883 C -326.38601,137.83941 -318.01759,133.61528 -311.96981,131.57699 C -306.44821,129.4364 -301.33788,124.37622 -295.06433,125.45425 C -288.70786,126.52172 -293.22339,132.39563 -297.67834,131.68521 C -305.45461,133.79223 -313.23714,137.02823 -319.25988,142.47506 C -320.58722,144.10912 -322.49462,147.31397 -324.99225,145.50883 z" style="fill:#000000" id="path3077"/>
      <path d="M -188.65891,115.67551 C -184.51343,109.35286 -185.752,121.68241 -188.65891,115.67551 z" style="fill:#000000" id="path3075"/>
      <path d="M -203.01389,106.98273 C -204.61914,103.32104 -211.8398,96.7152 -207.30224,94.163358 C -203.5672,97.597052 -201.29575,102.29731 -198.00988,106.12941 C -194.08734,112.48508 -200.6632,110.31316 -203.01389,106.98273 z" style="fill:#000000" id="path3073"/>
      <path d="M -234.65891,78.675514 C -230.51344,72.35287 -231.75199,84.682405 -234.65891,78.675514 z" style="fill:#000000" id="path3071"/>
      <path d="M -247.41898,73.631012 C -250.33394,67.963835 -259.78553,64.939263 -258.73269,57.967977 C -260.82527,55.142218 -264.91933,64.69566 -266.29079,58.74375 C -261.44095,54.735891 -260.3971,48.196017 -263.86271,42.717018 C -266.30465,39.346748 -261.94275,35.58529 -260.84423,40.485871 C -259.94513,45.986689 -253.50851,48.873211 -254.6797,53.705402 C -252.09737,54.849414 -250.15887,52.749912 -252.18068,56.402952 C -253.33477,63.341397 -246.48051,67.373694 -243.07152,72.366485 C -240.41656,76.094132 -245.87599,75.147114 -247.41898,73.631012 z" style="fill:#000000" id="path3069"/>
      <path d="M -266.65891,28.675514 C -262.51344,22.35287 -263.75199,34.682405 -266.65891,28.675514 z" style="fill:#000000" id="path3067"/>
      <path d="M -509.9696,268.64343 C -500.81094,262.95029 -505.68406,246.3901 -516.44651,246.4118 C -525.91218,245.54498 -533.36824,258.1435 -527.08911,265.70859 C -523.33696,270.9786 -515.25823,272.40003 -509.9696,268.64343 z" style="fill:#c3557f;fill-opacity:1" id="path3065"/>
      <path d="M -43.969604,268.64343 C -34.810934,262.9503 -39.684051,246.3901 -50.446506,246.4118 C -59.91218,245.54498 -67.368237,258.14349 -61.089124,265.70859 C -57.336976,270.97861 -49.258242,272.40002 -43.969604,268.64343 z" style="fill:#c3557f;fill-opacity:1" id="path3063"/>
      <path d="M -46.057972,199.66924 C -37.917276,193.10234 -31.284865,183.79252 -29.927756,173.24331 C -29.628259,161.10187 -38.95834,151.49168 -48.324534,145.08444 C -55.117666,144.51896 -57.211032,136.37458 -55.217558,130.83614 C -53.099866,120.25939 -52.240202,109.2924 -54.715804,98.692078 C -56.42687,90.028808 -58.627112,81.298052 -63.235307,73.677332 C -68.539226,62.298699 -75.367226,51.220341 -85.687715,43.732894 C -91.458228,38.877106 -99.189917,34.97757 -101.43284,27.229443 C -103.34721,21.354382 -104.61327,14.769829 -109.57426,10.575933 C -119.79067,-2.4821339 -132.68377,-13.639943 -147.69373,-20.824486 C -146.94903,-17.08301 -156.8326,-10.106605 -154.73582,-17.12898 C -148.30099,-21.611588 -156.80205,-30.043388 -162.29882,-25.767282 C -166.86392,-22.439223 -169.80605,-17.166877 -171.76238,-11.955167 C -172.10183,-6.9216174 -181.37103,-6.0599919 -177.10908,-11.724823 C -174.22614,-17.967869 -169.73704,-23.310378 -164.84549,-28.078949 C -166.86698,-33.05758 -174.52829,-31.543152 -178.6884,-34.213364 C -189.09468,-37.21524 -200.0162,-37.385985 -210.74198,-37.400692 C -217.17033,-40.373891 -219.79673,-48.227325 -226.84694,-50.696877 C -235.07702,-56.734824 -244.93731,-59.65464 -253.87125,-64.404633 C -265.91485,-70.349027 -279.29794,-73.832394 -292.79235,-73.213833 C -300.00664,-72.671206 -307.68038,-74.285482 -314.39167,-70.866866 C -320.57642,-68.008528 -326.13227,-63.950703 -332.28336,-61.043895 C -339.85176,-55.862413 -344.77428,-47.920151 -351.17459,-41.516617 C -357.57628,-38.270593 -363.52437,-44.666188 -370.00896,-44.087393 C -382.27023,-44.812023 -395.06927,-44.410855 -406.22655,-38.660711 C -412.58903,-35.380949 -418.20037,-30.847085 -423.8052,-26.439302 C -428.4786,-22.363691 -432.5528,-17.553957 -435.53662,-12.10432 C -431.48415,-12.686029 -428.02081,-3.4531674 -434.17382,-6.5214149 C -439.8133,-12.286339 -445.00478,-2.887811 -445.63159,2.1897738 C -448.70352,7.9351343 -450.53084,14.178992 -452.91948,20.041613 C -456.73014,24.465484 -463.14918,24.185783 -467.83039,27.277771 C -475.23686,31.253833 -481.7979,36.570091 -488.75968,41.238963 C -494.76846,45.477989 -499.33486,51.285267 -503.27855,57.401806 C -509.84708,66.052324 -515.7786,75.59458 -517.56953,86.488716 C -520.41117,98.084638 -521.73119,110.10072 -520.94391,122.03135 C -518.50113,121.06337 -510.84579,115.3171 -511.82774,121.2158 C -516.0495,123.89317 -524.67969,128.00792 -519.94297,133.99098 C -516.46643,138.70209 -510.70275,124.69952 -509.95579,132.60068 C -514.70916,136.77132 -520.13149,144.19782 -514.50157,149.967 C -510.53629,158.23325 -507.35642,167.29774 -500.29189,173.56082 C -494.66875,179.128 -487.18895,183.5944 -478.97439,182.62409 C -471.26041,182.16148 -463.92359,177.65169 -460.34673,170.76046 C -450.73044,159.21734 -433.99808,158.62551 -423.24614,148.59036 C -404.75609,133.38574 -387.62037,116.07849 -375.29495,95.405559 C -371.072,89.882041 -368.17434,82.243885 -362.5024,78.466493 C -354.6579,76.986514 -346.54489,77.92535 -338.76112,75.948774 C -335.04906,76.19499 -327.2642,71.99303 -333.80222,69.245344 C -336.55537,67.941324 -345.5019,66.178486 -342.69988,62.682199 C -334.92869,61.896283 -329.56939,70.437557 -321.78347,69.561018 C -319.35107,68.348765 -325.17052,65.649042 -320.43459,65.657795 C -313.82651,66.246005 -307.32386,65.027113 -302.49284,60.081236 C -295.76512,54.201325 -290.34046,46.969364 -285.11265,39.776958 C -278.73142,29.135046 -276.70449,16.580684 -275.14834,4.4569116 C -274.72577,-1.8501931 -273.34346,-8.0005012 -272.30192,-14.206863 C -271.69843,-19.360053 -272.68843,-25.293647 -277.01244,-28.663395 C -278.53272,-33.270734 -286.47434,-36.962378 -284.55482,-41.657102 C -278.97251,-40.230552 -276.0635,-33.796243 -272.21131,-29.861121 C -267.95544,-24.103707 -269.57217,-16.920154 -268.88324,-10.33556 C -268.17874,-2.2277019 -265.37489,5.5266999 -261.72383,12.726293 C -257.95025,23.00886 -250.45459,31.414361 -246.66521,41.6994 C -242.74272,49.198408 -238.31328,56.738839 -231.96516,62.428158 C -223.96168,67.869115 -214.12983,69.095544 -205.28261,72.583996 C -200.7601,79.699952 -201.52104,89.93631 -193.99646,95.098499 C -185.91348,103.39766 -175.90883,109.68805 -165.37679,114.37841 C -158.4405,117.27166 -148.94291,117.82789 -145.57569,125.65973 C -143.247,132.35983 -142.57935,139.79731 -138.5926,145.75945 C -135.00159,152.38946 -133.90255,142.214 -132.87412,139.39441 C -132.70801,135.97441 -127.63004,134.82268 -129.22716,139.32185 C -129.21372,146.19496 -136.51594,153.52706 -130.57408,159.35586 C -124.30537,169.50846 -116.66637,178.7378 -108.38041,187.27332 C -102.92747,192.04363 -96.557828,195.85116 -89.998646,198.81085 C -79.941989,201.29039 -69.394381,200.57838 -59.364873,203.20676 C -54.758531,202.91524 -50.159524,201.82295 -46.057972,199.66924 z" style="fill:#f6c17b;fill-opacity:1" id="path3061"/>
      <path d="M -487.9184,177.7462 C -491.67992,177.86808 -499.69319,171.16091 -495.30484,169.11042 C -490.20036,171.92611 -485.10253,177.00282 -478.75572,174.41824 C -475.73523,173.75492 -468.63187,166.42036 -470.67272,173.38413 C -473.94349,178.48825 -481.46901,180.27216 -487.00609,178.27443 L -487.9184,177.7462 L -487.9184,177.7462 z" style="fill:#000000" id="path3059"/>
      <path d="M -86.158905,166.29948 C -97.781081,163.02215 -108.89671,155.44477 -113.36214,143.82961 C -116.82082,136.95972 -119.62752,129.21521 -118.34579,121.41567 C -112.6586,121.92443 -117.14067,130.77107 -113.21694,133.762 C -110.23469,145.9801 -101.18962,156.48331 -89.504794,161.15069 C -82.093708,165.3769 -72.831102,165.6341 -64.907079,162.73169 C -65.738611,168.88109 -73.461794,168.71397 -78.164787,167.95895 C -80.865681,167.60158 -83.528778,167.00272 -86.158905,166.29948 z" style="fill:#000000" id="path3057"/>
      <path d="M -467.65891,164.67551 C -463.51343,158.35286 -464.752,170.68241 -467.65891,164.67551 z" style="fill:#000000" id="path3055"/>
      <path d="M -499.65891,159.67551 C -495.51343,153.35286 -496.752,165.68241 -499.65891,159.67551 z" style="fill:#000000" id="path3053"/>
      <path d="M -444.65891,150.39383 C -439.4694,146.48832 -430.50412,144.07881 -430.79691,136.15728 C -428.82868,134.10628 -427.14799,140.37045 -427.97401,136.04125 C -429.28611,133.03864 -423.71527,126.93085 -424.1401,132.3296 C -425.49848,136.99971 -420.57928,137.87296 -418.85563,133.74143 C -417.29322,131.50406 -410.67363,125.66754 -410.41233,130.86573 C -414.56966,137.41335 -423.13422,140.08591 -426.07038,147.56214 C -429.20593,146.07247 -430.13474,149.1404 -430.93177,150.13751 C -434.86433,149.19045 -442.6282,153.1373 -444.65891,150.39383 z" style="fill:#000000" id="path3051"/>
      <path d="M -493.6745,131.3185 C -502.85119,125.12113 -503.92772,112.89596 -503.41168,102.78194 C -502.4876,87.665146 -500.33524,71.178276 -489.5421,59.634591 C -487.14795,56.590627 -479.53735,51.172842 -477.62159,55.204011 C -481.32058,59.792151 -487.5244,61.757641 -490.34213,67.276658 C -496.69838,76.730191 -498.86834,88.293717 -500.27523,99.406425 C -500.7509,106.61871 -500.83988,114.41376 -497.44153,120.97144 C -495.32857,125.40689 -487.57382,129.30432 -487.82504,133.06671 C -489.9559,133.49962 -491.78545,132.01052 -493.6745,131.3185 z" style="fill:#000000" id="path3049"/>
      <path d="M -467.65891,122.34472 C -460.15105,118.66341 -451.15729,120.58202 -443.7551,116.58352 C -434.04,114.49936 -425.18122,109.46258 -417.03573,103.96585 C -407.99237,96.346304 -400.21798,86.786112 -396.54628,75.408581 C -395.00614,71.238676 -393.82392,66.886724 -393.60871,62.427694 C -387.60453,61.987404 -391.75657,71.973584 -392.54319,75.644564 C -398.03375,91.232864 -408.90144,105.19321 -423.82606,112.7035 C -431.38781,117.12437 -439.8593,119.4597 -448.34962,121.2886 C -454.00283,122.75431 -460.02143,125.48246 -465.87724,123.62944 L -466.83239,123.07975 L -467.65891,122.34472 L -467.65891,122.34472 z" style="fill:#000000" id="path3047"/>
      <path d="M -171.58195,77.911644 C -183.41764,72.155162 -190.05401,57.843896 -187.18012,45.057732 C -186.816,36.972856 -196.28643,38.621704 -201.49441,38.64635 C -210.13346,37.777101 -218.92212,33.128309 -222.41224,24.815888 C -228.13955,14.809382 -229.68152,3.0128594 -229.44025,-8.3523472 C -223.17522,-6.5675686 -227.55882,2.1965875 -225.06867,6.829869 C -222.76243,17.725826 -217.41599,29.610261 -206.45148,34.058103 C -200.02906,36.39728 -192.66248,33.678286 -186.50442,36.805937 C -181.60223,41.813161 -186.87385,49.393438 -184.07359,55.388518 C -182.56418,62.333846 -178.59019,68.929495 -172.50867,72.772792 C -169.1715,78.153354 -158.99022,74.44564 -156.97016,79.260452 C -161.30917,81.902988 -167.21611,79.346296 -171.58195,77.911644 z" style="fill:#000000" id="path3045"/>
      <path d="M -82.658905,66.713898 C -85.959237,59.110043 -94.109173,55.856332 -100.65891,51.675514 C -94.474022,48.064049 -88.283037,53.881095 -84.059787,57.957174 C -81.169927,59.718543 -77.19422,66.513564 -81.425028,68.009852 L -82.153882,67.423546 L -82.658905,66.713898 L -82.658905,66.713898 z" style="fill:#000000" id="path3043"/>
      <path d="M -366.33554,55.304066 C -369.75024,49.554958 -375.5438,44.213225 -374.87715,36.955828 C -370.71303,34.667415 -369.54708,44.002331 -367.50413,46.813354 C -365.18107,53.354807 -357.09691,56.675431 -351.27718,52.334228 C -346.50258,49.449806 -342.72197,43.91783 -336.86004,47.028912 C -330.99733,47.23099 -325.34059,45.216878 -319.55471,44.607982 C -309.50829,42.384491 -298.77584,37.144611 -294.80094,27.00403 C -288.18362,17.631623 -289.44082,5.5495199 -285.86233,-4.9159578 C -280.00094,-7.1662374 -284.67567,2.7220927 -284.73216,5.7894183 C -285.86427,15.441373 -288.04604,25.221935 -293.67339,33.340481 C -299.28234,42.509295 -309.90075,46.71197 -320.08545,48.278541 C -326.85987,49.428067 -333.73465,49.744798 -340.55597,50.503108 C -347.00505,56.843078 -356.94921,57.908802 -365.47935,56.692764 L -365.86031,56.331312 L -366.33554,55.304066 L -366.33554,55.304066 z" style="fill:#000000" id="path3041"/>
      <path d="M -128.65891,23.354074 C -129.91471,13.518039 -136.32062,3.847504 -146.1587,0.98518525 C -151.46294,-3.0582008 -139.92946,-3.6381009 -138.68886,0.16138061 C -130.47316,5.1930273 -124.85423,14.823634 -125.69489,24.569364 C -126.96805,28.600942 -129.16785,26.408798 -128.65891,23.354074 z" style="fill:#000000" id="path3039"/>
      <path d="M -393.64359,-19.574486 C -389.72155,-28.167582 -378.93943,-30.652309 -370.344,-29.559446 C -363.60131,-27.497124 -356.04478,-27.094111 -350.22906,-22.77195 C -346.31442,-19.577777 -351.52445,-16.94673 -354.09998,-20.268749 C -358.83822,-23.945618 -364.71791,-24.931074 -370.38397,-26.268958 C -377.6578,-27.18506 -385.48358,-24.616126 -390.27984,-18.95171 C -391.23825,-17.879911 -394.05525,-17.255289 -393.64359,-19.574486 z" style="fill:#000000" id="path3037"/>
      <path d="M -201.72357,-42.480747 C -196.53662,-54.85113 -193.90101,-68.117802 -188.82607,-80.526787 C -185.57117,-90.237797 -179.98739,-100.18939 -182.74667,-110.75072 C -184.05705,-119.80836 -187.34685,-130.5172 -196.81154,-133.98661 C -212.29177,-140.21825 -229.03355,-141.95912 -245.20295,-145.59757 C -281.35054,-151.31225 -318.10032,-150.49096 -354.55706,-149.53802 C -361.64832,-149.01206 -368.78717,-147.71095 -375.26812,-144.6841 C -388.49239,-143.05089 -399.05566,-128.16422 -394.16185,-115.27895 C -388.57427,-97.261737 -377.52533,-81.553456 -371.70283,-63.616232 C -369.51842,-57.965173 -368.56063,-50.710389 -362.52548,-47.796117 C -358.1767,-44.518767 -351.2898,-44.994265 -349.18398,-50.572405 C -342.71669,-58.128717 -335.71868,-65.862624 -326.20692,-69.512374 C -318.89206,-73.598846 -310.97783,-78.73109 -302.19151,-77.228831 C -288.98065,-77.026269 -275.18871,-78.20785 -262.76189,-72.786974 C -252.82148,-70.089609 -244.38714,-63.733178 -234.57128,-60.70576 C -226.13985,-55.377767 -216.59221,-50.873156 -210.8168,-42.378021 C -208.07209,-40.355077 -204.67172,-41.989572 -201.72357,-42.480747 z" style="fill:#c3557f;fill-opacity:1" id="path3035"/>
      <path d="M -214.65891,-55.32449 C -211.48237,-63.163054 -208.90161,-71.307133 -204.56052,-78.615144 C -198.7564,-75.695182 -206.32426,-68.140013 -207.48654,-63.801519 C -208.70626,-60.667077 -209.97,-51.568976 -214.31522,-54.269852 L -214.65891,-55.32449 L -214.65891,-55.32449 z" style="fill:#000000" id="path3033"/>
      <path d="M -354.65891,-56.32449 C -350.51344,-62.647134 -351.75199,-50.317599 -354.65891,-56.32449 z" style="fill:#000000" id="path3031"/>
      <path d="M -361.65891,-66.324493 C -366.00372,-74.998624 -369.12797,-84.269911 -374.29896,-92.52469 C -378.02804,-99.720508 -381.7817,-106.93215 -384.65891,-114.5218 C -377.54074,-114.26889 -377.29227,-105.26379 -374.1091,-100.57541 C -369.64562,-91.704399 -363.96251,-83.340638 -361.13929,-73.730153 C -359.13676,-72.619472 -356.5958,-61.701794 -361.65891,-66.324493 z" style="fill:#000000" id="path3029"/>
      <path d="M -197.65891,-85.324493 C -193.51343,-91.647128 -194.752,-79.317593 -197.65891,-85.324493 z" style="fill:#000000" id="path3027"/>
      <path d="M -383.65891,-129.32449 C -379.51343,-135.64714 -380.752,-123.31759 -383.65891,-129.32449 z" style="fill:#000000" id="path3025"/>
      <path d="M -399.32239,-126.01817 C -398.11503,-136.82485 -389.05729,-144.94686 -379.4502,-148.85147 C -386.6872,-151.51978 -385.82796,-161.41594 -392.20674,-165.04467 C -399.33387,-170.62525 -400.43619,-180.44919 -399.67378,-188.84786 C -400.11534,-198.60815 -391.71966,-205.64446 -384.10166,-210.21833 C -381.70523,-212.69436 -372.15071,-214.6843 -374.16664,-210.00941 C -383.234,-207.50057 -392.11672,-201.5469 -395.66141,-192.55378 C -398.01714,-183.87673 -396.68601,-172.48542 -388.17727,-167.62946 C -383.43047,-163.99197 -384.33373,-156.3557 -378.53289,-153.4238 C -372.75871,-148.13389 -365.91151,-152.90073 -359.45655,-153.10046 C -327.5708,-155.65831 -295.4809,-154.8728 -263.627,-152.25922 C -241.12548,-149.83461 -218.88164,-145.21249 -197.04075,-139.37899 C -190.51895,-136.59918 -185.98951,-130.92994 -180.86748,-126.27329 C -175.38878,-134.70255 -172.63799,-144.50201 -170.21416,-154.15729 C -172.18895,-160.70047 -183.90222,-159.50668 -183.3684,-166.76801 C -177.81957,-168.32161 -174.43657,-160.33948 -169.30738,-159.02205 C -162.65299,-156.1003 -159.66989,-164.06086 -155.52167,-167.49799 C -150.4374,-173.2165 -145.01926,-179.02505 -141.90649,-186.07486 C -138.98999,-197.18482 -144.36529,-208.21838 -149.85454,-217.59051 C -152.38523,-217.79344 -161.09085,-213.86884 -156.46632,-219.26039 C -153.57854,-224.10098 -162.44773,-228.5847 -166.39989,-229.34913 C -172.91668,-228.02599 -173.61677,-220.45859 -176.68058,-215.8703 C -181.92317,-212.7124 -178.6693,-223.06864 -176.56484,-224.96174 C -173.36849,-229.60381 -169.5383,-234.31727 -169.43985,-240.23898 C -166.80312,-252.8257 -168.17359,-266.09257 -173.22902,-277.90646 C -176.68461,-287.35952 -181.87717,-296.22885 -188.77058,-303.58893 C -188.35557,-314.47965 -191.13545,-326.02575 -198.3489,-334.4079 C -208.26261,-343.53517 -222.46239,-343.79735 -234.88516,-346.84448 C -243.05338,-348.35913 -251.47917,-348.93069 -259.72077,-347.65694 C -265.3777,-349.9849 -273.71586,-343.23679 -266.40639,-339.03455 C -263.20606,-335.47466 -270.0656,-330.73197 -270.05506,-336.78813 C -270.0315,-343.32735 -278.0623,-348.52311 -283.46452,-344.10901 C -284.14573,-340.28051 -278.73417,-332.95686 -283.85813,-331.02574 C -286.94485,-335.7749 -285.68837,-346.31599 -293.7412,-345.57926 C -305.84396,-345.08519 -318.77202,-346.84711 -330.00448,-341.12844 C -341.33942,-337.17666 -348.25947,-326.25643 -352.95597,-315.83142 C -355.81046,-308.0309 -356.19593,-299.65714 -357.15891,-291.48569 C -366.15361,-285.97337 -376.20179,-280.70686 -381.28893,-270.97085 C -386.27157,-264.15234 -388.14938,-255.61651 -388.67545,-247.32449 C -380.31642,-242.87066 -371.26354,-239.862 -362.07898,-237.69579 C -357.82893,-234.83046 -363.16589,-232.35169 -365.8528,-234.68419 C -373.94417,-236.85805 -381.71338,-240.05521 -389.3507,-243.46603 C -387.98616,-237.4814 -386.09948,-227.64525 -393.92185,-225.45997 C -402.4882,-223.09098 -409.87717,-217.67993 -415.89345,-211.26804 C -423.28107,-202.67722 -425.19802,-190.88505 -426.01228,-179.93341 C -426.44756,-171.10686 -426.36665,-162.22921 -426.23419,-153.41445 C -426.71216,-148.14722 -421.96047,-136.42837 -416.44016,-144.1395 C -414.02298,-146.16766 -407.28392,-152.85459 -405.62289,-148.57276 C -408.82245,-143.31785 -417.03245,-141.84013 -417.68529,-134.86432 C -418.01265,-129.61931 -412.92481,-130.31742 -411.30027,-134.37924 C -408.88172,-137.19273 -403.83116,-145.80311 -400.29655,-141.78688 C -402.80619,-135.83023 -410.83185,-133.37642 -411.44052,-126.44648 C -410.38313,-122.58011 -402.96546,-119.07906 -399.78069,-122.60634 C -399.19662,-123.63517 -399.18275,-124.87668 -399.32239,-126.01817 z" style="fill:#f6c17b;fill-opacity:1" id="path3023"/>
      <path d="M -238.65891,-164.12691 C -232.07773,-168.95539 -221.74954,-165.52024 -216.57959,-172.76028 C -212.34256,-178.49303 -215.23006,-188.05179 -222.24836,-189.96236 C -221.4223,-194.17967 -214.33412,-196.39217 -212.2106,-200.9029 C -208.27582,-206.00303 -202.09189,-211.74069 -205.74254,-218.67164 C -208.02869,-224.69901 -209.07466,-231.34763 -213.43599,-236.36938 C -215.89388,-238.5363 -217.78312,-243.68426 -212.71178,-241.37705 C -207.15362,-237.86301 -205.34386,-231.40699 -204.09781,-225.37891 C -202.08857,-218.96554 -199.13589,-211.48553 -203.37127,-205.26987 C -206.45264,-199.91321 -212.86847,-196.61296 -214.16933,-190.28878 C -210.28238,-183.10414 -210.26091,-173.11249 -216.36551,-167.15631 C -221.38452,-163.16237 -228.37812,-164.4187 -234.33549,-162.94187 C -235.84646,-162.95225 -237.37175,-163.3164 -238.65891,-164.12691 z" style="fill:#000000" id="path3021"/>
      <path d="M -304.15891,-187.82449 C -310.93685,-186.35446 -316.23588,-193.13665 -315.91162,-199.45765 C -317.45024,-205.92742 -311.48591,-212.77735 -314.89236,-218.63021 C -319.565,-221.47447 -324.91086,-223.14033 -329.17838,-226.76332 C -334.35884,-230.61496 -340.05897,-235.90822 -339.56472,-242.94828 C -340.36116,-253.70941 -339.22134,-265.7555 -331.32155,-273.86006 C -327.30769,-276.19459 -318.9382,-278.3653 -324.47177,-284.03646 C -331.19212,-295.48582 -331.77913,-311.94844 -321.99592,-321.88341 C -315.94819,-327.22535 -307.44219,-331.58038 -299.22344,-329.21398 C -294.77155,-326.3118 -304.24478,-327.02847 -306.00753,-325.91682 C -313.00713,-324.7676 -319.23027,-320.44201 -322.5859,-314.1838 C -326.7448,-307.75908 -327.94592,-298.92766 -323.91674,-292.14981 C -323.55084,-286.46829 -315.54327,-282.15755 -316.38062,-277.32813 C -323.75259,-273.92249 -332.79782,-269.98135 -334.60922,-261.12201 C -337.12442,-252.51902 -338.94918,-241.70886 -332.04915,-234.58105 C -325.80665,-227.3043 -316.63517,-223.78912 -308.29923,-219.56688 C -306.32228,-212.87745 -315.04762,-208.37771 -313.08847,-201.33586 C -313.43711,-194.78956 -307.0744,-191.09024 -301.33097,-190.58433 C -298.50483,-191.17298 -290.81308,-187.21834 -297.43656,-186.78256 C -299.72128,-186.69789 -301.96126,-187.27567 -304.15891,-187.82449 z" style="fill:#000000" id="path3019"/>
      <path d="M -254.63695,-310.07449 C -252.10798,-315.92397 -249.38005,-323.3067 -253.45694,-329.12271 C -246.096,-329.93405 -246.71773,-319.95868 -248.67798,-315.31844 C -249.41591,-313.09666 -251.37931,-306.32005 -254.63695,-310.07449 z" style="fill:#000000" id="path3015"/>
    </g>
  </g>
  <metadata>
    <rdf:RDF>
      <cc:Work>
        <dc:format>image/svg+xml</dc:format>
        <dc:type rdf:resource="http://purl.org/dc/dcmitype/StillImage"/>
        <cc:license rdf:resource="http://creativecommons.org/licenses/publicdomain/"/>
        <dc:publisher>
          <cc:Agent rdf:about="http://openclipart.org/">
            <dc:title>Open Clip Art Library</dc:title>
          </cc:Agent>
        </dc:publisher>
        <dc:title>girlface4</dc:title>
        <dc:date>2006-10-23T18:15:00</dc:date>
        <dc:description/>
        <dc:source>http://openclipart.org/detail/869/girlface4-by-ryanlerch</dc:source>
        <dc:creator>
          <cc:Agent>
            <dc:title>ryanlerch</dc:title>
          </cc:Agent>
        </dc:creator>
        <dc:subject>
          <rdf:Bag>
            <rdf:li>clip art</rdf:li>
            <rdf:li>clipart</rdf:li>
            <rdf:li>colour</rdf:li>
            <rdf:li>colour</rdf:li>
            <rdf:li>contour</rdf:li>
            <rdf:li>contour</rdf:li>
            <rdf:li>face</rdf:li>
            <rdf:li>face</rdf:li>
            <rdf:li>girl</rdf:li>
            <rdf:li>girl</rdf:li>
            <rdf:li>head</rdf:li>
            <rdf:li>head</rdf:li>
            <rdf:li>image</rdf:li>
            <rdf:li>media</rdf:li>
            <rdf:li>outline</rdf:li>
            <rdf:li>outline</rdf:li>
            <rdf:li>people</rdf:li>
            <rdf:li>people</rdf:li>
            <rdf:li>person</rdf:li>
            <rdf:li>person</rdf:li>
            <rdf:li>png</rdf:li>
            <rdf:li>public domain</rdf:li>
            <rdf:li>remix</rdf:li>
            <rdf:li>svg</rdf:li>
            <rdf:li>woman</rdf:li>
            <rdf:li>woman</rdf:li>
            <rdf:li>worldlabel</rdf:li>
            <rdf:li>worldlabel</rdf:li>
          </rdf:Bag>
        </dc:subject>
      </cc:Work>
      <cc:License rdf:about="http://creativecommons.org/licenses/publicdomain/">
        <cc:permits rdf:resource="http://creativecommons.org/ns#Reproduction"/>
        <cc:permits rdf:resource="http://creativecommons.org/ns#Distribution"/>
        <cc:permits rdf:resource="http://creativecommons.org/ns#DerivativeWorks"/>
      </cc:License>
    </rdf:RDF>
  </metadata>
</svg>
