<?xml version="1.0" encoding="UTF-8" standalone="no"?>
<!-- Created with Inkscape (http://www.inkscape.org/) -->
<svg xmlns:svg="http://www.w3.org/2000/svg" xmlns="http://www.w3.org/2000/svg" xmlns:dc="http://purl.org/dc/elements/1.1/" xmlns:cc="http://web.resource.org/cc/" xmlns:rdf="http://www.w3.org/1999/02/22-rdf-syntax-ns#" version="1.0" width="494.047" height="534.32001" viewBox="0 0 494.047 534.32" id="Layer_1" xml:space="preserve"><defs id="defs84"/>



<g id="g5">
	<path d="M 45.214,291.447 C 45.214,425.547 133.846,534.302 243.178,534.302 C 352.475,534.302 441.107,425.546 441.107,291.447 C 441.107,157.346 352.475,48.591 243.178,48.591 C 133.846,48.591 45.214,157.347 45.214,291.447 L 45.214,291.447 z " style="fill-rule:evenodd;stroke:black;stroke-width:0.036;stroke-miterlimit:10" id="path7"/>
	<path d="M 49.426,291.879 C 49.426,423.747 136.546,530.703 244.006,530.703 C 351.466,530.703 438.586,423.747 438.586,291.879 C 438.586,159.975 351.466,53.019 244.006,53.019 C 136.545,53.019 49.426,159.975 49.426,291.879 L 49.426,291.879 z " style="fill:#dbaf94;fill-rule:evenodd;stroke:black;stroke-width:0.036;stroke-miterlimit:10" id="path9"/>
	<path d="M 62.602,247.995 C 61.378,243.135 59.182,239.679 55.87,237.195 C 52.558,234.711 48.094,233.379 42.874,233.343 C 37.51,233.235 29.266,233.055 24.118,236.691 C 18.862,240.291 14.722,246.627 11.842,254.727 C 8.818,262.719 6.226,274.528 6.55,284.32 C 6.838,294.076 8.854,305.452 14.002,312.471 C 19.078,319.383 30.994,323.812 37.114,325.215 C 43.054,326.331 46.654,323.236 49.858,319.671 C 53.026,316.071 54.934,310.779 55.87,303.795 L 55.87,303.795 L 62.602,247.995 L 62.602,247.995 z " style="fill-rule:evenodd;stroke:black;stroke-width:0.036;stroke-miterlimit:10" id="path11"/>
	<path d="M 56.59,307.899 C 56.014,306.063 55.294,305.306 54.43,305.487 C 53.566,305.739 52.522,306.89 51.298,309.087 C 49.858,311.211 48.31,315.495 46.258,317.763 C 44.134,319.851 42.55,321.652 39.274,321.616 C 35.89,321.436 30.886,319.636 26.782,317.044 C 22.642,314.308 17.566,310.672 14.758,305.992 C 11.806,301.24 10.258,295.588 9.682,288.891 L 9.682,288.891 C 9.358,287.667 9.574,284.86 10.186,280.467 C 10.798,275.931 11.734,268.155 13.534,262.431 C 15.298,256.527 17.53,250.155 20.518,246.087 C 23.47,242.019 26.998,239.463 31.102,238.131 C 34.99,236.619 40.642,237.159 44.314,237.411 C 47.842,237.591 50.506,238.239 52.738,239.355 C 54.862,240.435 56.518,241.875 57.562,243.675 C 58.606,245.295 58.246,248.319 59.002,249.435 C 59.686,250.479 60.514,250.767 61.63,250.155 C 62.638,249.435 63.718,248.175 65.014,245.835 L 65.014,245.835 C 62.206,266.499 59.397,287.199 56.59,307.899 L 56.59,307.899 z " style="fill:#dbaf94;fill-rule:evenodd" id="path13"/>
	<path d="M 51.802,259.803 C 51.298,258.291 48.67,255.699 46.258,254.511 C 43.702,253.179 40.066,251.739 36.862,252.567 C 33.514,253.359 29.626,255.267 26.998,259.551 C 24.334,263.835 21.994,271.36 21.49,277.839 C 20.914,284.247 21.526,293.283 23.866,297.568 C 26.17,301.672 31.642,302.752 35.422,302.608 C 39.022,302.32 44.494,298.144 46.006,296.343 C 47.374,294.471 46.114,291.555 44.314,291.772 C 42.478,291.952 38.086,296.847 35.422,297.568 C 32.578,298.179 29.95,297.46 28.222,295.408 C 26.494,293.212 25.558,289.612 25.558,285.04 C 25.486,280.36 26.386,272.404 27.97,267.977 C 29.446,263.512 32.29,259.984 34.702,258.364 C 37.078,256.6 39.922,257.032 42.406,257.86 C 44.782,258.688 47.482,262.72 49.138,263.152 C 50.649,263.367 52.234,261.279 51.802,259.803 L 51.802,259.803 z " style="fill-rule:evenodd;stroke:black;stroke-width:0.036;stroke-miterlimit:10" id="path15"/>
	<path d="M 427.282,250.083 C 428.47,245.259 430.666,241.695 434.013,239.247 C 437.289,236.727 441.61,235.503 446.973,235.431 C 452.301,235.323 460.509,235.143 465.765,238.779 C 470.95,242.379 474.982,248.715 478.005,256.815 C 480.921,264.807 483.513,276.616 483.297,286.408 C 482.901,296.164 480.885,307.54 475.845,314.56 C 470.661,321.471 458.709,325.9 452.77,327.303 C 446.721,328.419 443.122,325.324 440.026,321.759 C 436.822,318.159 434.914,312.867 434.013,305.883 L 434.013,305.883 L 427.282,250.083 L 427.282,250.083 z " style="fill-rule:evenodd;stroke:black;stroke-width:0.036;stroke-miterlimit:10" id="path17"/>
	<path d="M 433.294,309.987 C 433.834,308.151 434.554,307.395 435.454,307.575 C 436.21,307.827 437.254,308.979 438.586,311.175 C 439.99,313.299 441.538,317.583 443.626,319.851 C 445.678,321.94 447.227,323.74 450.61,323.704 C 453.885,323.524 458.925,321.724 463.102,319.132 C 467.133,316.432 472.246,312.689 475.125,308.044 C 478.041,303.256 479.553,297.712 480.201,290.981 L 480.201,290.981 C 480.489,289.756 480.273,286.949 479.697,282.556 C 478.977,278.021 478.041,270.244 476.348,264.52 C 474.548,258.616 472.317,252.244 469.365,248.176 C 466.304,244.108 462.777,241.552 458.781,240.22 C 454.713,238.708 449.133,239.248 445.533,239.5 C 441.897,239.68 439.233,240.328 437.109,241.444 C 434.84,242.524 433.293,243.964 432.321,245.764 C 431.169,247.384 431.565,250.408 430.881,251.524 C 430.125,252.568 429.19,252.856 428.217,252.244 C 427.173,251.524 426.058,250.264 424.869,247.924 L 424.869,247.924 C 427.678,268.587 430.486,289.287 433.294,309.987 L 433.294,309.987 z " style="fill:#dbaf94;fill-rule:evenodd" id="path19"/>
	<path d="M 438.082,261.891 C 438.514,260.379 441.106,257.787 443.626,256.599 C 446.074,255.267 449.746,253.827 452.986,254.655 C 456.261,255.447 460.15,257.355 462.849,261.639 C 465.37,265.923 467.818,273.448 468.394,279.927 C 468.862,286.335 468.286,295.371 465.982,299.656 C 463.534,303.76 458.169,304.84 454.461,304.696 C 450.753,304.408 445.281,300.232 443.877,298.431 C 442.473,296.56 443.625,293.644 445.533,293.86 C 447.261,294.04 451.725,298.936 454.461,299.656 C 457.161,300.196 459.933,299.511 461.661,297.46 C 463.317,295.229 464.145,291.736 464.289,287.128 C 464.217,282.448 463.425,274.492 461.913,270.065 C 460.365,265.492 457.521,262.144 455.181,260.416 C 452.698,258.616 449.854,259.156 447.478,259.948 C 444.994,260.776 442.33,264.808 440.746,265.24 C 439.126,265.455 437.542,263.367 438.082,261.891 L 438.082,261.891 z " style="fill-rule:evenodd;stroke:black;stroke-width:0.036;stroke-miterlimit:10" id="path21"/>
	<path d="M 196.162,222.363 C 196.162,233.235 202.102,242.091 209.482,242.091 C 216.826,242.091 222.802,233.235 222.802,222.363 C 222.802,211.455 216.826,202.635 209.482,202.635 C 202.102,202.635 196.162,211.455 196.162,222.363 L 196.162,222.363 z " style="fill-rule:evenodd;stroke:black;stroke-width:0.036;stroke-miterlimit:10" id="path23"/>
	<path d="M 202.857,212.462 C 202.857,214.442 204.477,216.062 206.493,216.062 C 208.509,216.062 210.129,214.442 210.129,212.462 C 210.129,210.446 208.509,208.826 206.493,208.826 C 204.477,208.826 202.857,210.447 202.857,212.462 L 202.857,212.462 z " style="fill:white;fill-rule:evenodd;stroke:black;stroke-width:0.036;stroke-miterlimit:10" id="path25"/>
	<path d="M 183.49,187.875 C 185.974,185.571 191.482,181.971 195.73,179.847 C 199.942,177.579 205.198,175.851 208.726,175.203 C 212.11,174.519 215.53,175.239 216.214,176.247 C 216.646,177.291 215.026,180.027 212.182,181.395 C 209.374,182.619 203.506,182.331 199.582,183.987 C 195.586,185.499 191.374,188.991 188.602,190.971 C 185.83,192.915 184.21,195.435 182.914,195.903 C 181.438,196.263 180.502,194.571 180.538,193.311 C 180.538,191.979 180.97,190.035 183.49,187.875 L 183.49,187.875 z " style="fill-rule:evenodd;stroke:black;stroke-width:0.036;stroke-miterlimit:10" id="path27"/>
	<path d="M 292.822,226.358 C 292.822,237.266 286.882,246.122 279.502,246.122 C 272.158,246.122 266.182,237.266 266.182,226.358 C 266.182,215.486 272.159,206.63 279.502,206.63 C 286.882,206.63 292.822,215.487 292.822,226.358 L 292.822,226.358 z " style="fill-rule:evenodd;stroke:black;stroke-width:0.036;stroke-miterlimit:10" id="path29"/>
	<path d="M 282.238,216.207 C 282.238,218.223 280.618,219.843 278.602,219.843 C 276.622,219.843 275.001,218.223 275.001,216.207 C 275.001,214.227 276.621,212.607 278.602,212.607 C 280.618,212.606 282.238,214.227 282.238,216.207 L 282.238,216.207 z " style="fill:white;fill-rule:evenodd;stroke:black;stroke-width:0.036;stroke-miterlimit:10" id="path31"/>
	<path d="M 308.771,191.907 C 306.071,189.603 300.779,186.003 296.495,183.879 C 292.211,181.611 286.955,179.883 283.499,179.235 C 279.936,178.587 276.587,179.199 275.976,180.243 C 275.471,181.287 277.091,183.987 280.007,185.427 C 282.779,186.651 288.611,186.363 292.644,188.019 C 296.604,189.531 300.78,193.023 303.66,195.003 C 306.36,196.947 307.98,199.503 309.348,199.899 C 310.716,200.223 311.653,198.675 311.724,197.343 C 311.65,196.011 311.182,194.066 308.771,191.907 L 308.771,191.907 z " style="fill-rule:evenodd;stroke:black;stroke-width:0.036;stroke-miterlimit:10" id="path33"/>
	<path d="M 76.894,207.387 C 77.362,203.067 80.782,192.015 83.266,184.923 C 85.642,177.652 89.854,167.571 91.582,164.943 C 93.346,162.387 94.318,165.483 93.526,169.659 C 92.518,173.727 88.306,182.511 86.038,189.351 C 83.734,196.155 81.43,207.027 79.954,210.159 C 78.37,213.002 76.282,211.707 76.894,207.387 L 76.894,207.387 z " style="fill-rule:evenodd;stroke:black;stroke-width:0.036;stroke-miterlimit:10" id="path35"/>
	<path d="M 76.065,215.703 C 75.417,216.891 74.301,221.931 74.661,223.191 C 75.093,224.271 77.541,224.127 78.261,222.903 C 78.765,221.607 78.621,217.179 78.261,215.991 C 77.722,214.695 76.714,214.551 76.065,215.703 L 76.065,215.703 z " style="fill-rule:evenodd;stroke:black;stroke-width:0.036;stroke-miterlimit:10" id="path37"/>
	<path d="M 96.478,154.395 C 95.506,155.439 93.058,159.867 93.166,161.271 C 93.238,162.495 95.722,162.855 96.73,161.919 C 97.63,160.875 98.458,156.483 98.53,155.259 C 98.458,153.854 97.306,153.422 96.478,154.395 L 96.478,154.395 z " style="fill-rule:evenodd;stroke:black;stroke-width:0.036;stroke-miterlimit:10" id="path39"/>
	<path d="M 325.762,91.827 C 329.615,93.699 339.046,100.106 345.166,104.787 C 351.214,109.287 359.566,116.379 361.618,118.863 C 363.418,121.31 360.106,121.31 356.542,119.259 C 352.87,116.991 345.814,110.331 340.09,106.083 C 334.222,101.763 324.647,96.255 322.198,93.879 C 319.75,91.395 321.91,90.063 325.762,91.827 L 325.762,91.827 z " style="fill-rule:evenodd;stroke:black;stroke-width:0.036;stroke-miterlimit:10" id="path41"/>
	<path d="M 318.094,88.479 C 317.014,87.364 312.695,84.952 311.399,84.843 C 310.067,84.807 309.598,87.327 310.571,88.371 C 311.507,89.235 315.791,90.459 317.159,90.495 C 318.418,90.459 318.958,89.415 318.094,88.479 L 318.094,88.479 z " style="fill-rule:evenodd;stroke:black;stroke-width:0.036;stroke-miterlimit:10" id="path43"/>
	<path d="M 370.15,126.747 C 369.322,125.451 365.866,121.887 364.642,121.491 C 363.381,121.131 362.158,123.434 362.913,124.659 C 363.633,125.775 367.413,128.007 368.709,128.438 C 369.862,128.619 370.798,128.007 370.15,126.747 L 370.15,126.747 z " style="fill-rule:evenodd;stroke:black;stroke-width:0.036;stroke-miterlimit:10" id="path45"/>
	<path d="M 235.006,526.347 C 230.65,526.06 219.31,524.259 211.966,522.495 C 204.586,520.659 193.966,517.887 191.23,516.411 C 188.53,514.863 191.446,513.531 195.694,513.963 C 199.87,514.359 208.978,517.743 216.07,519.255 C 223.054,520.695 234.106,521.812 237.418,523.035 C 240.478,524.223 239.253,526.347 235.006,526.347 L 235.006,526.347 z " style="fill-rule:evenodd;stroke:black;stroke-width:0.036;stroke-miterlimit:10" id="path47"/>
	<path d="M 243.357,526.275 C 244.617,526.671 249.694,527.283 250.954,526.851 C 251.998,526.346 251.494,523.682 250.27,523.287 C 248.866,522.747 244.581,523.503 243.393,524.043 C 242.169,524.547 242.062,525.663 243.357,526.275 L 243.357,526.275 z " style="fill-rule:evenodd;stroke:black;stroke-width:0.036;stroke-miterlimit:10" id="path49"/>
	<path d="M 180.178,512.703 C 181.33,513.495 186.046,515.367 187.378,515.259 C 188.602,514.9 188.746,512.488 187.666,511.623 C 186.478,510.759 182.05,510.363 180.79,510.579 C 179.494,510.688 179.062,511.911 180.178,512.703 L 180.178,512.703 z " style="fill-rule:evenodd;stroke:black;stroke-width:0.036;stroke-miterlimit:10" id="path51"/>
	<path d="M 225.213,63.135 C 224.421,68.751 221.469,74.007 216.213,78.904 C 210.849,83.763 201.633,86.32 193.713,92.404 C 185.757,98.416 179.817,101.656 168.945,114.904 C 157.893,128.08 141.657,154.467 128.445,171.135 C 115.017,187.731 100.833,203.787 90.213,213.903 C 79.665,223.803 74.301,227.043 65.949,230.823 C 57.381,234.567 48.093,237.051 40.317,236.331 C 32.577,235.395 25.737,230.355 20.193,225.783 C 14.613,221.103 10.437,214.551 7.125,209.187 C 3.633,203.931 -0.651,199.287 0.105,194.139 C 0.789,188.739 4.497,184.311 11.661,177.543 C 18.789,170.775 34.629,164.799 42.801,153.927 C 50.757,142.803 54.609,127.971 59.901,112.203 C 65.157,96.398 65.661,75.195 74.481,59.967 C 83.193,44.559 98.169,29.439 112.173,21.267 C 126.213,13.204 142.521,11.547 157.893,11.727 C 173.157,11.872 192.165,16.191 203.109,21.771 C 213.873,27.28 220.101,34.624 222.225,44.379 L 222.225,44.379 C 229.173,32.823 239.001,23.535 251.854,16.227 C 264.778,8.847 281.877,2.259 299.122,0.639 C 316.222,-1.089 337.858,0.747 353.878,6.687 C 369.79,12.664 380.554,20.835 394.09,36.351 C 407.483,51.975 424.33,79.983 433.798,99.135 C 443.014,118.179 443.231,136.035 449.855,149.391 C 456.479,162.423 466.163,169.587 473.47,177.543 C 480.742,185.463 490.426,188.307 493.09,196.623 C 495.538,204.867 492.91,217.323 488.554,226.791 C 483.983,236.295 476.134,247.599 466.954,252.927 C 457.774,258.075 442.942,264.123 434.266,257.463 C 425.554,250.407 420.622,226.575 415.187,212.211 C 409.678,197.811 412.378,187.623 401.615,172.503 C 390.598,157.347 372.815,137.872 350.351,122.284 C 327.67,106.515 286.703,87.508 267.443,79.552 C 248.255,71.704 243.43,78.184 236.302,75.52 C 229.174,72.711 225.61,68.715 225.213,63.135 L 225.213,63.135 z " style="fill-rule:evenodd;stroke:black;stroke-width:0.036;stroke-miterlimit:10" id="path53"/>
	<path d="M 214.162,34.335 C 216.79,37.395 218.77,40.239 219.706,45.387 C 220.606,50.535 222.046,59.355 219.706,65.475 C 217.258,71.523 211.426,76.707 205.126,81.568 C 198.574,86.32 188.566,88.839 181.51,94.131 C 174.454,99.279 170.098,104.319 163.438,112.707 C 156.742,121.095 150.73,131.535 141.802,143.883 C 132.622,156.123 120.562,173.259 109.654,185.571 C 98.71,197.703 85.426,209.223 77.002,216.243 C 68.578,223.047 65.77,224.343 59.398,226.791 C 52.774,229.239 44.674,232.011 38.302,230.823 C 31.93,229.491 26.206,223.191 21.706,219.267 C 17.026,215.271 13.786,211.059 11.158,207.207 C 8.422,203.283 6.226,199.827 6.118,196.155 C 5.866,192.375 7.234,188.811 10.654,185.067 C 14.146,181.143 20.482,178.407 26.746,173.511 C 32.902,168.651 41.758,163.575 47.338,155.943 C 52.81,147.988 55.726,138.339 59.398,127.288 C 62.818,116.164 65.41,101.62 68.434,90.603 C 71.314,79.515 72.394,70.839 77.506,61.948 C 82.618,53.019 90.322,45.028 99.106,37.828 C 107.746,30.483 117.826,22.456 129.742,18.748 C 141.766,14.968 157.93,14.428 170.458,15.724 C 182.842,16.949 196.162,23.104 203.614,26.272 C 210.85,29.331 211.498,31.095 214.162,34.335 L 214.162,34.335 z " style="fill:#49322a;fill-rule:evenodd;stroke:black;stroke-width:0.036;stroke-miterlimit:10" id="path55"/>
	<path d="M 295.09,4.167 C 285.01,4.814 281.519,6.615 273.49,9.711 C 265.282,12.735 253.618,18.387 246.849,22.779 C 240.045,27.098 236.769,31.131 233.277,35.846 C 229.677,40.346 226.545,45.098 226.221,50.39 C 226.005,55.754 227.625,63.819 231.765,67.491 C 235.797,70.982 245.517,70.659 250.377,71.522 C 255.093,72.279 253.905,70.623 260.421,72.531 C 266.865,74.403 275.434,76.85 289.041,83.079 C 302.649,89.235 326.229,100.106 341.313,109.719 C 356.109,119.367 367.413,130.599 377.997,140.355 C 388.474,149.824 397.653,157.779 404.133,166.995 C 410.469,176.211 412.737,185.535 416.194,195.651 C 419.614,205.803 421.954,218.295 424.726,227.295 C 427.318,236.151 428.398,243.459 432.286,248.391 C 436.138,253.215 441.97,256.059 447.838,255.951 C 453.598,255.483 461.41,250.839 466.954,246.879 C 472.391,242.919 476.782,240.183 480.526,232.839 C 484.198,225.351 489.49,210.159 489.058,202.671 C 488.41,195.147 483.118,194.175 477.501,188.091 C 471.849,181.899 461.518,174.951 455.397,165.987 C 449.205,156.807 445.317,145.612 440.817,134.343 C 436.245,122.967 433.545,111.051 428.253,99.135 C 422.854,87.112 417.489,76.095 408.669,63.459 C 399.633,50.751 387.573,33.543 374.974,23.787 C 362.194,13.959 346.677,8.451 333.286,5.175 C 319.822,1.863 305.098,3.339 295.09,4.167 L 295.09,4.167 z " style="fill:#49322a;fill-rule:evenodd;stroke:black;stroke-width:0.036;stroke-miterlimit:10" id="path57"/>
	<path d="M 211.174,56.943 C 205.018,54.386 192.814,44.991 179.998,42.363 C 167.11,39.735 147.13,35.81 134.782,41.859 C 122.29,47.907 114.586,62.306 106.126,78.543 C 97.666,94.743 95.47,120.555 84.526,138.339 C 73.438,156.051 51.154,174.159 40.318,184.059 C 29.41,193.671 23.362,195.399 19.69,196.623 C 15.982,197.739 14.974,194.679 18.178,191.619 C 21.31,188.523 30.058,185.319 38.302,178.551 C 46.51,171.639 58.822,159.831 66.922,150.904 C 74.842,141.975 80.674,135.891 85.534,125.271 C 90.322,114.399 91.546,98.236 95.578,87.076 C 99.61,75.916 104.002,66.592 109.15,58.96 C 114.046,51.292 118.762,45.568 125.242,41.356 C 131.686,37.037 138.202,33.76 147.85,33.329 C 157.498,32.825 173.086,36.209 182.518,38.333 C 191.734,40.241 197.35,42.365 203.11,45.389 C 208.726,48.45 214.702,54.353 216.178,56.441 C 217.474,58.274 217.149,59.283 211.174,56.943 L 211.174,56.943 z " style="fill-rule:evenodd;stroke:black;stroke-width:0.036;stroke-miterlimit:10" id="path59"/>
	<path d="M 206.638,65.979 C 201.886,65.043 188.134,64.719 178.99,65.979 C 169.882,67.059 162.07,66.627 152.35,73.036 C 142.522,79.552 128.914,93.015 120.706,104.68 C 112.498,116.201 109.834,129.844 103.138,141.868 C 96.226,153.784 88.882,164.8 79.99,176.032 C 70.954,187.228 54.574,202.096 49.858,208.684 C 45.178,214.984 48.49,216.856 51.874,214.732 C 55.186,212.572 62.53,203.788 69.442,196.156 C 76.21,188.452 85.678,178.156 92.554,169.012 C 99.214,159.832 104.902,151.264 110.158,141.365 C 115.414,131.321 117.142,119.585 124.234,109.217 C 131.218,98.669 142.054,85.241 151.882,79.049 C 161.71,72.929 173.266,73.721 182.518,72.533 C 191.626,71.308 201.958,72.497 206.134,71.524 C 210.166,70.407 211.03,66.843 206.638,65.979 L 206.638,65.979 z " style="fill-rule:evenodd;stroke:black;stroke-width:0.036;stroke-miterlimit:10" id="path61"/>
	<path d="M 251.854,34.335 C 255.381,31.491 265.102,25.803 275.469,22.274 C 285.801,18.747 300.778,12.878 313.161,13.707 C 325.293,14.535 336.741,20.079 348.333,27.279 C 359.854,34.371 372.381,43.623 382.029,56.438 C 391.533,69.254 398.121,86.894 405.141,103.67 C 412.017,120.41 415.22,141.722 423.212,155.941 C 431.168,169.873 442.832,178.261 452.372,187.081 C 461.732,195.829 475.017,203.749 479.012,208.213 C 482.792,212.497 481.893,217.357 475.485,213.217 C 468.753,208.861 449.853,192.013 440.313,183.085 C 430.844,174.121 425.3,171.781 419.216,159.937 C 413.025,147.841 409.172,127.07 403.628,112.202 C 398.012,97.334 392.612,83.618 386.024,72.026 C 379.328,60.578 373.532,51.542 363.92,43.37 C 354.164,34.981 340.052,26.054 328.244,22.273 C 316.22,18.385 305.42,18.061 293.072,20.761 C 280.652,23.533 261.86,35.917 254.876,38.329 C 248.002,40.491 248.29,37.035 251.854,34.335 L 251.854,34.335 z " style="fill-rule:evenodd;stroke:black;stroke-width:0.036;stroke-miterlimit:10" id="path63"/>
	<path d="M 246.85,57.951 C 252.827,57.303 271.006,56.871 282.527,58.455 C 293.831,60.003 301.174,60.795 314.674,67.491 C 328.246,74.331 348.262,85.31 362.914,98.631 C 377.422,111.843 390.67,131.86 401.11,145.899 C 411.334,159.831 416.914,171.495 424.221,181.575 C 431.457,191.439 436.965,198.927 444.345,205.695 C 451.617,212.427 465.045,219.195 467.961,222.255 C 470.625,225.279 466.449,226.251 461.409,223.767 C 456.333,221.031 445.857,214.515 438.297,206.703 C 430.737,198.855 423.969,188.271 416.193,177.039 C 408.129,165.591 399.705,151.083 391.065,139.347 C 382.389,127.539 374.973,116.919 364.928,107.2 C 354.884,97.444 343.941,88.804 331.269,81.568 C 318.453,74.259 303.081,67.275 289.04,63.964 C 274.856,60.688 254.48,62.884 247.352,61.948 C 240.298,60.903 240.91,58.455 246.85,57.951 L 246.85,57.951 z " style="fill-rule:evenodd;stroke:black;stroke-width:0.036;stroke-miterlimit:10" id="path65"/>
	<path d="M 171.034,360.027 C 176.902,366.722 183.67,372.59 191.734,377.775 C 199.798,382.922 207.502,387.422 218.878,390.842 C 230.182,394.082 245.914,397.502 258.983,397.359 C 271.943,397.071 286.09,392.643 296.134,389.762 C 305.891,386.739 311.542,384.399 317.806,379.97 C 324.107,375.542 329.254,370.034 333.647,363.302 L 333.647,363.302 L 329.111,360.746 L 329.111,360.746 C 324.611,367.01 318.598,372.302 310.678,377.054 C 302.651,381.699 292.138,386.162 281.914,388.647 C 271.546,390.987 260.926,391.886 249.91,391.203 C 238.857,390.266 225.862,386.883 216.61,383.967 C 207.394,380.98 201.67,377.919 194.974,373.816 C 188.17,369.675 182.014,364.887 176.218,359.307 L 176.218,359.307 C 174.49,359.523 172.762,359.775 171.034,360.027 L 171.034,360.027 z " style="fill-rule:evenodd;stroke:black;stroke-width:0.036;stroke-miterlimit:10" id="path67"/>
	<path d="M 145.51,323.451 C 142.81,323.163 140.11,323.811 137.122,325.251 C 134.134,326.655 131.002,328.995 127.726,332.127 L 127.726,332.127 C 123.226,333.279 119.698,334.611 116.746,336.123 C 113.794,337.635 111.634,339.327 110.266,341.199 L 110.266,341.199 C 105.334,341.883 101.482,343.935 98.314,347.355 C 95.11,350.811 92.014,356.823 91.546,361.502 C 91.078,366.038 91.942,371.078 95.398,374.534 C 98.818,377.846 105.082,380.834 111.562,381.41 C 117.898,381.878 125.026,380.546 133.234,377.414 L 133.234,377.414 C 139.678,377.954 145.294,377.594 150.37,376.334 C 155.41,375.002 159.622,372.878 163.294,369.818 L 163.294,369.818 C 172.798,368.666 179.71,367.261 184.606,365.462 C 189.394,363.59 191.878,361.466 192.058,358.946 L 192.058,358.946 C 198.286,357.938 202.498,356.858 204.982,355.706 C 207.394,354.446 207.934,353.114 206.602,351.71 L 206.602,351.71 C 213.694,351.134 218.77,350.162 222.118,348.794 C 225.394,347.355 226.798,345.59 226.33,343.358 L 226.33,343.358 C 232.198,344.69 236.59,344.257 239.902,341.918 C 243.07,339.47 245.662,333.818 245.734,329.246 C 245.77,324.53 242.638,317.114 240.226,314.378 C 237.706,311.607 234.574,311.174 230.83,312.939 L 230.83,312.939 C 225.07,309.771 219.346,308.079 213.082,307.863 C 206.818,307.647 200.446,308.762 193.678,311.499 L 193.678,311.499 C 187.09,311.067 182.014,311.283 178.162,311.859 C 174.31,312.435 171.826,313.514 170.71,315.098 L 170.71,315.098 C 163.042,315.458 157.174,316.178 152.962,317.655 C 148.713,319.095 146.229,320.896 145.51,323.451 L 145.51,323.451 z " style="fill-rule:evenodd;stroke:black;stroke-width:0.036;stroke-miterlimit:10" id="path69"/>
	<path d="M 147.129,326.331 C 144.429,326.043 141.729,326.655 138.741,328.167 C 135.753,329.571 132.621,331.911 129.345,335.043 L 129.345,335.043 C 124.845,336.015 121.317,337.167 118.365,338.644 C 115.413,340.156 113.253,341.667 111.885,343.719 L 111.885,343.719 C 106.845,344.476 102.993,346.707 99.933,350.272 C 96.765,353.908 93.741,360.892 93.777,365.104 C 93.849,369.208 97.305,372.303 100.257,374.536 C 103.101,376.624 105.117,377.848 110.589,377.812 C 115.953,377.595 123.081,376.408 132.261,373.816 L 132.261,373.816 C 138.705,374.356 144.321,373.996 149.397,372.736 C 154.437,371.404 158.649,369.316 162.321,366.183 L 162.321,366.183 C 171.789,365.104 178.809,363.663 183.669,361.864 C 188.493,359.992 190.869,357.904 191.085,355.312 L 191.085,355.312 C 197.313,354.303 201.525,353.223 204.009,352.072 C 206.421,350.812 206.961,349.48 205.629,348.076 L 205.629,348.076 C 212.721,347.464 217.797,346.636 221.145,345.196 C 224.421,343.756 225.825,341.992 225.357,339.759 L 225.357,339.759 C 229.533,341.667 232.989,341.955 236.013,340.48 C 239.001,338.931 242.529,335.043 243.141,331.047 C 243.537,326.907 240.693,319.167 238.929,316.575 C 237.129,314.019 234.969,313.766 232.449,315.819 L 232.449,315.819 C 226.725,312.722 220.893,310.995 214.665,310.779 C 208.365,310.563 202.101,311.715 195.297,314.379 L 195.297,314.379 C 188.709,313.947 183.633,314.163 179.781,314.739 C 175.929,315.279 173.445,316.467 172.329,318.014 L 172.329,318.014 C 164.589,318.231 158.793,319.202 154.545,320.535 C 150.262,321.976 147.921,323.775 147.129,326.331 L 147.129,326.331 z " style="fill:#49322a;fill-rule:evenodd" id="path71"/>
	<path d="M 338.687,326.979 C 340.955,326.762 343.439,327.447 345.995,329.031 C 348.515,330.507 351.251,332.883 354.059,336.159 L 354.059,336.159 C 357.874,337.455 361.115,338.787 363.634,340.443 C 366.155,342.063 367.954,343.718 369.178,345.699 L 369.178,345.699 C 373.355,346.527 376.846,348.687 379.51,352.178 C 382.174,355.706 384.695,361.826 385.126,366.506 C 385.378,371.078 384.37,376.082 381.418,379.43 C 378.322,382.634 372.563,385.479 367.054,385.874 C 361.366,386.234 355.283,384.578 348.118,381.302 L 348.118,381.302 C 342.43,381.662 337.426,381.086 333.106,379.718 C 328.642,378.315 325.042,375.975 321.91,372.842 L 321.91,372.842 C 313.63,371.51 307.474,369.819 303.298,367.91 C 299.086,365.93 296.962,363.734 296.926,361.178 L 296.926,361.178 C 291.49,360.027 287.782,358.874 285.658,357.578 C 283.534,356.282 283.137,354.986 284.326,353.546 L 284.326,353.546 C 278.062,352.754 273.634,351.746 270.754,350.234 C 267.838,348.686 266.758,346.885 267.227,344.69 L 267.227,344.69 C 262.042,345.878 258.082,345.265 255.346,342.854 C 252.359,340.297 250.559,334.681 250.523,330.038 C 250.559,325.394 253.403,317.942 255.743,315.314 C 257.975,312.614 260.675,312.217 263.987,314.126 L 263.987,314.126 C 269.098,311.138 274.211,309.662 279.755,309.554 C 285.228,309.41 290.735,310.886 296.675,313.695 L 296.675,313.695 C 302.363,313.514 306.9,313.731 310.283,314.487 C 313.595,315.171 315.755,316.323 316.762,317.943 L 316.762,317.943 C 323.494,318.447 328.534,319.455 332.279,320.966 C 335.95,322.515 338.038,324.423 338.687,326.979 L 338.687,326.979 z " style="fill-rule:evenodd;stroke:black;stroke-width:0.036;stroke-miterlimit:10" id="path73"/>
	<path d="M 337.174,329.823 C 339.479,329.607 341.926,330.291 344.519,331.875 C 347.147,333.351 349.703,335.728 352.582,339.003 L 352.582,339.003 C 356.398,340.083 359.638,341.343 362.158,342.927 C 364.678,344.511 366.478,346.131 367.702,348.183 L 367.702,348.183 C 371.986,349.083 375.478,351.316 378.034,355.024 C 380.554,358.66 383.146,365.896 383.038,370.072 C 382.786,374.139 379.618,377.164 377.134,379.288 C 374.506,381.304 372.706,382.492 367.99,382.276 C 363.274,381.988 357.01,380.511 349.053,377.704 L 349.053,377.704 C 343.365,378.064 338.362,377.488 334.041,376.12 C 329.577,374.716 325.978,372.376 322.845,369.244 L 322.845,369.244 C 314.566,367.912 308.409,366.22 304.234,364.312 C 300.022,362.259 297.898,360.208 297.862,357.616 L 297.862,357.616 C 292.425,356.392 288.717,355.276 286.593,353.98 C 284.469,352.683 284.073,351.387 285.261,349.948 L 285.261,349.948 C 279.07,349.156 274.606,348.148 271.726,346.635 C 268.845,345.087 267.658,343.287 268.162,341.091 L 268.162,341.091 C 264.346,342.892 261.394,343.035 258.766,341.524 C 256.103,339.904 253.078,335.908 252.754,331.912 C 252.43,327.7 255.13,320.14 256.822,317.548 C 258.478,315.028 260.278,314.884 262.51,316.972 L 262.51,316.972 C 267.586,314.021 272.698,312.401 278.242,312.401 C 283.75,312.365 289.258,313.661 295.198,316.577 L 295.198,316.577 C 300.886,316.361 305.422,316.613 308.805,317.333 C 312.19,318.053 314.205,319.169 315.249,320.825 L 315.249,320.825 C 322.018,321.329 327.058,322.337 330.801,323.848 C 334.402,325.323 336.526,327.267 337.174,329.823 L 337.174,329.823 z " style="fill:#49322a;fill-rule:evenodd" id="path75"/>
	<path d="M 326.914,112.851 C 330.802,114.723 340.018,121.419 346.102,126.135 C 352.15,130.671 360.249,137.979 362.337,140.427 C 364.173,142.767 360.753,142.875 357.226,140.751 C 353.482,138.411 346.786,131.715 341.026,127.323 C 335.265,122.894 325.618,117.314 323.314,114.867 C 320.938,112.347 323.063,110.979 326.914,112.851 L 326.914,112.851 z " style="fill-rule:evenodd;stroke:black;stroke-width:0.036;stroke-miterlimit:10" id="path77"/>
	<path d="M 319.282,109.395 C 318.31,108.387 313.882,105.652 312.658,105.652 C 311.362,105.616 310.786,108.135 311.758,109.179 C 312.731,110.223 316.906,111.196 318.311,111.411 C 319.57,111.375 320.074,110.331 319.282,109.395 L 319.282,109.395 z " style="fill-rule:evenodd;stroke:black;stroke-width:0.036;stroke-miterlimit:10" id="path79"/>
	<path d="M 370.762,148.455 C 369.97,147.267 366.586,143.415 365.326,143.127 C 363.994,142.803 362.878,144.963 363.526,146.259 C 364.173,147.411 367.99,149.679 369.286,150.147 C 370.402,150.435 371.446,149.643 370.762,148.455 L 370.762,148.455 z " style="fill-rule:evenodd;stroke:black;stroke-width:0.036;stroke-miterlimit:10" id="path81"/>
</g>
<metadata><rdf:RDF><cc:Work><dc:format>image/svg+xml</dc:format><dc:type rdf:resource="http://purl.org/dc/dcmitype/StillImage"/><cc:license rdf:resource="http://creativecommons.org/licenses/publicdomain/"/><dc:publisher><cc:Agent rdf:about="http://openclipart.org/"><dc:title>Open Clip Art Library</dc:title></cc:Agent></dc:publisher><dc:title>Man Face Cartoon</dc:title><dc:date>2006-10-18T10:31:21</dc:date><dc:description>Uploaded by "World Label" for conversion to SVG and publication on OCAL.</dc:description><dc:source>http://openclipart.org/detail/730/man-face-cartoon-by-gerald_g-730</dc:source><dc:creator><cc:Agent><dc:title>Gerald_G</dc:title></cc:Agent></dc:creator><dc:subject><rdf:Bag><rdf:li>cartoon</rdf:li><rdf:li>clip art</rdf:li><rdf:li>clipart</rdf:li><rdf:li>externalsource</rdf:li><rdf:li>face</rdf:li><rdf:li>man</rdf:li><rdf:li>people</rdf:li><rdf:li>remix</rdf:li><rdf:li>worldlabel</rdf:li></rdf:Bag></dc:subject></cc:Work><cc:License rdf:about="http://creativecommons.org/licenses/publicdomain/"><cc:permits rdf:resource="http://creativecommons.org/ns#Reproduction"/><cc:permits rdf:resource="http://creativecommons.org/ns#Distribution"/><cc:permits rdf:resource="http://creativecommons.org/ns#DerivativeWorks"/></cc:License></rdf:RDF></metadata></svg>
